/* XPM */
static char * cordonneesx_xpm[] = {
"400 45 2 1",
" 	c None",
".	c #000000",
"                                                                                                                                                                                                                                                                                                                                                                                                                ",
"                                                                                                                                                                                                                                                                                                                                                                                                                ",
"                                                                                                                                                                                                                                                                                                                                                                                                                ",
"                                                                                                                                                                                                                                                                                                                                                                                                                ",
"                                                                                                                                                                                                                                                                                                                                                                                                                ",
"                                                                                                                                                                                                                                                                                                                                                                                                                ",
"                                                                                                                                                                                                                                                                                                                                                                                                                ",
"                                                                                                                                                                                                                                                                                                                                                                                                                ",
"                                                                                                                                                                                                                                                                                                                                                                                                                ",
"                                                                                                                                                                                                                                                                                                                                                                                                                ",
"                                                                                                                                                                                                                                                                                                                                                                                                                ",
"                     ...........                            ..........................                                .................                         ........................                           ...........................                         ..........................                          .......................                      ...........           ...........       ",
"                      .........                                ........................                            ......................                          .......................                            ........................                           ........................                         ..........................                      ........              ........        ",
"                       ........                                .........................                          ........................                         ........................                           ........................                            .......................                         ..........................                       ......               .......         ",
"                      .........                                .........................                          ........................                         .........................                          ........................                            .......................                         ...........................                      ......               .......         ",
"                      ..........                               ......              .....                          .....              .....                         ......            .......                          ......                 .                            ......               ..                         .....                ......                      ......               .......         ",
"                     ...........                               ......              .....                          .....              .....                         ......             .......                         ......                                              ......                .                         .....                .....                       ......               .......         ",
"                     ..... ......                              ......              .....                          .....              .....                         ......              .......                        ......                                              ......                                          .....                                            ......               .......         ",
"                    .....   .....                              ......              .....                          .....                                            ......               ......                        ......                                              ......                                          .....                                            ......               .......         ",
"                    .....   ......                             ......              .....                          .....                                            ......                .....                        .......         .                                   ......                                          .....                                            .......              .......         ",
"                   .....     ......                            .......................                            .....                                            ......                .....                        .................                                   ......        .                                 .....        .............                       ............................         ",
"                   .....     ......                            ......................                             .....                                            ......                .....                        .................                                   ...............                                 .....        .............                       ............................         ",
"                  .....       ......                           ......................                             .....                                            ......                .....                        .................                                   ...............                                 .....        .............                       ............................         ",
"                 ......       ......                           ......             .....                           .....                                            ......                .....                        .................                                   ...............                                 .....        .............                       ............................         ",
"                 .....         ......                          ......              .....                          .....               ....                         ......                .....                        ......         ..                                   ...............                                 .....                .....                       ......                ......         ",
"                ......................                         ......              .....                          .....              .....                         ......               ......                        ......          .                                   ......       ..                                 .....                .....                       ......                ......         ",
"                ......................                         ......              .....                          .....              .....                         ......               .....                         ......                                              ......        .                                 .....                .....                       ......                ......         ",
"               ........................                        ......              .....                          .....              .....                         ......              ......                         ......                                              ......                                          .....                .....                       ......                ......         ",
"              ........         .........                       ......              .....                          .....              .....                         .........................                          ......                 .                            ......                                          .....                .....                       ......                ......         ",
"              .....               ......                       ......             ......                          ........................                         .........................                          ........................                            ......                                          ..........................                       ......                ......         ",
"             ......                ......                      .........................                          ........................                         ........................                           ........................                            ......                                          ..........................                       ......                ......         ",
"            .......                .......                     .........................                           .......................                         ......................                             ........................                            ......                                          ..........................                       ......                ......         ",
"          .........               .........                  ..........................                            .....................                         ......................                             ..........................                           ........                                         ........................                        ........              ........        ",
"                                                                                                                                                                                                                                                                                                                             .................                                                                  ",
"                                                                                                                                                                                                                                                                                                                                                                                                                ",
"                                                                                                                                                                                                                                                                                                                                                                                                                ",
"                                                                                                                                                                                                                                                                                                                                                                                                                ",
"                                                                                                                                                                                                                                                                                                                                                                                                                ",
"                                                                                                                                                                                                                                                                                                                                                                                                                ",
"                                                                                                                                                                                                                                                                                                                                                                                                                ",
"                                                                                                                                                                                                                                                                                                                                                                                                                ",
"                                                                                                                                                                                                                                                                                                                                                                                                                ",
"                                                                                                                                                                                                                                                                                                                                                                                                                ",
"                                                                                                                                                                                                                                                                                                                                                                                                                ",
"                                                                                                                                                                                                                                                                                                                                                                                                                "};
