/* XPM */
static char * cordonneesy_xpm[] = {
"45 400 2 1",
" 	c None",
".	c #000000",
"                                             ",
"                                             ",
"                                             ",
"                                             ",
"                                             ",
"                                             ",
"                                             ",
"                                             ",
"                                             ",
"                                             ",
"                                             ",
"                                             ",
"                                             ",
"                                             ",
"                                             ",
"                                             ",
"                                             ",
"                                             ",
"                      ...                    ",
"                 ........                    ",
"                 ........                    ",
"                 ........                    ",
"                     ....                    ",
"                     ....                    ",
"                     ....                    ",
"                     ....                    ",
"                     ....                    ",
"                     ....                    ",
"                     ....                    ",
"                     ....                    ",
"                     ....                    ",
"                     ....                    ",
"                     ....                    ",
"                     ....                    ",
"                     ....                    ",
"                     ....                    ",
"                     ....                    ",
"                     ....                    ",
"                                             ",
"                                             ",
"                                             ",
"                                             ",
"                                             ",
"                                             ",
"                                             ",
"                                             ",
"                                             ",
"                                             ",
"                                             ",
"                                             ",
"                                             ",
"                                             ",
"                                             ",
"                                             ",
"                                             ",
"                                             ",
"                                             ",
"                                             ",
"                                             ",
"                                             ",
"                                             ",
"                                             ",
"                                             ",
"                                             ",
"                                             ",
"                                             ",
"                                             ",
"                                             ",
"               ................              ",
"              ...................            ",
"             ....................            ",
"             ....................            ",
"             .....           ....            ",
"             .....           ....            ",
"             .....          .....            ",
"             ....          ......            ",
"                         .......             ",
"                       .......               ",
"                      .......                ",
"                    .......                  ",
"                  .......                    ",
"                 .......                     ",
"               .......        ....           ",
"              ......          ....           ",
"             ......           ....           ",
"             .....................           ",
"             ....................            ",
"             ....................            ",
"                                             ",
"                                             ",
"                                             ",
"                                             ",
"                                             ",
"                                             ",
"                                             ",
"                                             ",
"                                             ",
"                                             ",
"                                             ",
"                                             ",
"                                             ",
"                                             ",
"                                             ",
"                                             ",
"                                             ",
"                                             ",
"                                             ",
"                                             ",
"                                             ",
"                                             ",
"                                             ",
"                                             ",
"                                             ",
"                                             ",
"                                             ",
"                                             ",
"                                             ",
"                                             ",
"                                             ",
"              .................              ",
"             ...................             ",
"             ....................            ",
"             ....................            ",
"             ....           .....            ",
"             ....           .....            ",
"                            .....            ",
"                            ....             ",
"                     ...........             ",
"                    ..........               ",
"                    ...........              ",
"                     ............            ",
"                             ....            ",
"                             ....            ",
"            .....            ....            ",
"            .....            ....            ",
"            .....           .....            ",
"            .....................            ",
"             ....................            ",
"             ...................             ",
"                                             ",
"                                             ",
"                                             ",
"                                             ",
"                                             ",
"                                             ",
"                                             ",
"                                             ",
"                                             ",
"                                             ",
"                                             ",
"                                             ",
"                                             ",
"                                             ",
"                                             ",
"                                             ",
"                                             ",
"                                             ",
"                                             ",
"                                             ",
"                                             ",
"                                             ",
"                                             ",
"                                             ",
"                                             ",
"                                             ",
"                                             ",
"                                             ",
"                                             ",
"                         .....               ",
"                        ......               ",
"                       .......               ",
"                      ........               ",
"                     .... ....               ",
"                   .....  ....               ",
"                  .....   ....               ",
"                 .....    ....               ",
"                .....     ....               ",
"               ....       ....               ",
"              ....        ....               ",
"            .....         ....               ",
"            ....          .....              ",
"            .......................          ",
"            .......................          ",
"            .......................          ",
"                          ....               ",
"                          ....               ",
"                          ....               ",
"                          ....               ",
"                                             ",
"                                             ",
"                                             ",
"                                             ",
"                                             ",
"                                             ",
"                                             ",
"                                             ",
"                                             ",
"                                             ",
"                                             ",
"                                             ",
"                                             ",
"                                             ",
"                                             ",
"                                             ",
"                                             ",
"                                             ",
"                                             ",
"                                             ",
"                                             ",
"                                             ",
"                                             ",
"                                             ",
"                                             ",
"                                             ",
"                                             ",
"                                             ",
"                                             ",
"                                             ",
"                                             ",
"                                             ",
"                                             ",
"                                             ",
"                                             ",
"                .................            ",
"                .................            ",
"                .................            ",
"               ..................            ",
"               ....                          ",
"               ....                          ",
"               ...                           ",
"               ................              ",
"               ...................           ",
"               ....................          ",
"               ....................          ",
"                               ....          ",
"                                ...          ",
"                                ...          ",
"                                ...          ",
"                               ....          ",
"               ......        ......          ",
"               ....................          ",
"               ...................           ",
"               .................             ",
"                                             ",
"                                             ",
"                                             ",
"                                             ",
"                                             ",
"                                             ",
"                                             ",
"                                             ",
"                                             ",
"                                             ",
"                                             ",
"                                             ",
"                                             ",
"                                             ",
"                                             ",
"                                             ",
"                                             ",
"                                             ",
"                                             ",
"                                             ",
"                                             ",
"                                             ",
"                                             ",
"                                             ",
"                                             ",
"                                             ",
"                                             ",
"                                             ",
"                     ...........             ",
"                   .............             ",
"                 ...............             ",
"                ........                     ",
"               ......                        ",
"               .....                         ",
"              .....                          ",
"              ....                           ",
"             ....................            ",
"             .....................           ",
"             ......................          ",
"             .....            .....          ",
"             ....              ....          ",
"             ....              ....          ",
"             .....             ....          ",
"             .....             ....          ",
"             ......          ......          ",
"              .....................          ",
"              ....................           ",
"               ..................            ",
"                                             ",
"                                             ",
"                                             ",
"                                             ",
"                                             ",
"                                             ",
"                                             ",
"                                             ",
"                                             ",
"                                             ",
"                                             ",
"                                             ",
"                                             ",
"                                             ",
"                                             ",
"                                             ",
"                                             ",
"                                             ",
"                                             ",
"                                             ",
"                                             ",
"                                             ",
"                                             ",
"                                             ",
"                                             ",
"                                             ",
"           .......................           ",
"           .......................           ",
"           .......................           ",
"           ......................            ",
"           .....            .....            ",
"           .....           .....             ",
"           .....           .....             ",
"            ...           .....              ",
"                          ....               ",
"                         .....               ",
"                        .....                ",
"                        .....                ",
"                       .....                 ",
"                      .....                  ",
"                      .....                  ",
"                     .....                   ",
"                    .....                    ",
"                    .....                    ",
"                   .....                     ",
"                   .....                     ",
"                                             ",
"                                             ",
"                                             ",
"                                             ",
"                                             ",
"                                             ",
"                                             ",
"                                             ",
"                                             ",
"                                             ",
"                                             ",
"                                             ",
"                                             ",
"                                             ",
"                                             ",
"                                             ",
"                                             ",
"                                             ",
"                                             ",
"                                             ",
"                                             ",
"                                             ",
"                                             ",
"                                             ",
"                                             ",
"                                             ",
"                                             ",
"                                             ",
"                                             ",
"                                             ",
"                                             ",
"                                             ",
"                                             ",
"             ..................              ",
"            .....................            ",
"           ......................            ",
"           ......................            ",
"           .....             ....            ",
"           .....             ....            ",
"           .....             ....            ",
"            ....             ....            ",
"            ....................             ",
"              ................               ",
"             ...................             ",
"            .....................            ",
"           ....              ....            ",
"           ....              .....           ",
"           ....              .....           ",
"           ....              .....           ",
"           .....             .....           ",
"           .......................           ",
"           ......................            ",
"            ....................             ",
"                                             ",
"                                             ",
"                                             ",
"                                             ",
"                                             ",
"                                             ",
"                                             ",
"                                             ",
"                                             ",
"                                             "};
