/* XPM */
static char * demarrer_xpm[] = {
"130 30 476 2",
"  	c None",
". 	c #FFFFFF",
"+ 	c #CFC9CD",
"@ 	c #CEC8CC",
"# 	c #D4CFD3",
"$ 	c #CFCACE",
"% 	c #CDC7CB",
"& 	c #D6D3D6",
"* 	c #DADADA",
"= 	c #D7D6D7",
"- 	c #D1CBCF",
"; 	c #C9C2C6",
"> 	c #CCC6CA",
", 	c #C8C2C6",
"' 	c #CEC9CD",
") 	c #D2CCD0",
"! 	c #C7C0C5",
"~ 	c #CBC4C8",
"{ 	c #D3CED2",
"] 	c #CDC9CC",
"^ 	c #D7D5D7",
"/ 	c #D4D0D3",
"( 	c #DAD9DA",
"_ 	c #D7D7D7",
": 	c #D9D9D9",
"< 	c #D8D7D8",
"[ 	c #D5D1D4",
"} 	c #D6D3D5",
"| 	c #D5D2D5",
"1 	c #D8D8D8",
"2 	c #D7D4D6",
"3 	c #D8D6D7",
"4 	c #D1CCD0",
"5 	c #CCC7CB",
"6 	c #CBC6CA",
"7 	c #CAC3C7",
"8 	c #C5BEC3",
"9 	c #BEB4BB",
"0 	c #C0B7BD",
"a 	c #D6D4D6",
"b 	c #C9C3C7",
"c 	c #C5BDC2",
"d 	c #C8C1C5",
"e 	c #D3D1D3",
"f 	c #D0CBCF",
"g 	c #CBC5C9",
"h 	c #D2CED1",
"i 	c #D5D2D4",
"j 	c #D9D8D9",
"k 	c #D8D7D7",
"l 	c #D7D5D6",
"m 	c #C7C0C4",
"n 	c #CAC3C8",
"o 	c #CDC8CC",
"p 	c #C8C1C6",
"q 	c #D2CFD2",
"r 	c #D4D0D4",
"s 	c #D6D2D5",
"t 	c #D8D6D8",
"u 	c #D9D7D8",
"v 	c #D4D1D4",
"w 	c #C7BFC4",
"x 	c #C2BABF",
"y 	c #CAC4C8",
"z 	c #D1CED0",
"A 	c #D6D5D6",
"B 	c #D4D1D3",
"C 	c #C9C3C8",
"D 	c #D3D0D2",
"E 	c #CFCACD",
"F 	c #D6D4D5",
"G 	c #D3CFD2",
"H 	c #C6BFC4",
"I 	c #C2B9BF",
"J 	c #C4BCC1",
"K 	c #D2CFD1",
"L 	c #D5D0D4",
"M 	c #D2CDD1",
"N 	c #D1CDD0",
"O 	c #C6BFC3",
"P 	c #C4BDC1",
"Q 	c #CFCBCE",
"R 	c #C9C1C6",
"S 	c #C1B8BE",
"T 	c #C3BCC1",
"U 	c #CDC6CB",
"V 	c #C9C2C7",
"W 	c #D0CACE",
"X 	c #CBC5CA",
"Y 	c #C6BEC3",
"Z 	c #D0CCCF",
"` 	c #D2D0D2",
" .	c #D3CFD3",
"..	c #CFCBCF",
"+.	c #C3BBC0",
"@.	c #C4BCC2",
"#.	c #CCC8CB",
"$.	c #CEC9CC",
"%.	c #D0CBCE",
"&.	c #D4CFD2",
"*.	c #D5D3D5",
"=.	c #D5D4D5",
"-.	c #C1B9BE",
";.	c #D2CDD0",
">.	c #D1CCCF",
",.	c #BCB1B9",
"'.	c #BBB0B7",
").	c #C5BEC2",
"!.	c #D4D1D2",
"~.	c #D1CED1",
"{.	c #C3BAC0",
"].	c #D3D0D3",
"^.	c #CECACC",
"/.	c #C5BDC3",
"(.	c #BFB5BB",
"_.	c #CFC9CC",
":.	c #CCC7CA",
"<.	c #CECACD",
"[.	c #C7C1C5",
"}.	c #BEB3BA",
"|.	c #BDB2B9",
"1.	c #CBC4C9",
"2.	c #D0CDD0",
"3.	c #CDC9CD",
"4.	c #BDB2BA",
"5.	c #D2CED0",
"6.	c #D0CCCE",
"7.	c #CDC8CB",
"8.	c #D7D4D7",
"9.	c #CDC7CC",
"0.	c #C3BBC1",
"a.	c #BFB5BC",
"b.	c #B8ACB4",
"c.	c #9A9498",
"d.	c #5E5C5D",
"e.	c #464445",
"f.	c #444244",
"g.	c #454344",
"h.	c #444344",
"i.	c #444243",
"j.	c #868184",
"k.	c #888487",
"l.	c #434143",
"m.	c #434142",
"n.	c #434042",
"o.	c #9F9B9E",
"p.	c #CAC5C9",
"q.	c #CAC4C9",
"r.	c #D3CED1",
"s.	c #D4D3D4",
"t.	c #C6BEC4",
"u.	c #C8C0C5",
"v.	c #000000",
"w.	c #868185",
"x.	c #595759",
"y.	c #878385",
"z.	c #444143",
"A.	c #5B585A",
"B.	c #9E9B9E",
"C.	c #5C595B",
"D.	c #B6B2B6",
"E.	c #A4A0A3",
"F.	c #464546",
"G.	c #474546",
"H.	c #726F71",
"I.	c #C4BDC2",
"J.	c #BEB4BA",
"K.	c #BAAFB7",
"L.	c #BDB3BA",
"M.	c #989297",
"N.	c #454445",
"O.	c #434243",
"P.	c #B7B3B6",
"Q.	c #5A585A",
"R.	c #413E40",
"S.	c #484748",
"T.	c #8F8D8F",
"U.	c #464646",
"V.	c #484747",
"W.	c #464446",
"X.	c #474647",
"Y.	c #777677",
"Z.	c #5F5E5F",
"`.	c #454345",
" +	c #C2BAC0",
".+	c #847F83",
"++	c #C5BCC2",
"@+	c #AEA7AD",
"#+	c #413F40",
"$+	c #857F83",
"%+	c #B0A9AE",
"&+	c #171616",
"*+	c #2D2B2C",
"=+	c #737072",
"-+	c #878487",
";+	c #B9ADB5",
">+	c #B6AAB2",
",+	c #B9AEB6",
"'+	c #BEB3BB",
")+	c #817C80",
"!+	c #424042",
"~+	c #888587",
"{+	c #474547",
"]+	c #9B969A",
"^+	c #837D81",
"/+	c #9B9499",
"(+	c #C6BDC3",
"_+	c #9B9498",
":+	c #424041",
"<+	c #9A9397",
"[+	c #C0B6BD",
"}+	c #161515",
"|+	c #403D3F",
"1+	c #171617",
"2+	c #2C2B2C",
"3+	c #BFB6BC",
"4+	c #BCB1B8",
"5+	c #7F797E",
"6+	c #BAAEB6",
"7+	c #BCB2BA",
"8+	c #6B6569",
"9+	c #B6B1B5",
"0+	c #8A8789",
"a+	c #8B888B",
"b+	c #BFBCBE",
"c+	c #B5B0B4",
"d+	c #D0CCD0",
"e+	c #BAB6B9",
"f+	c #595659",
"g+	c #847E82",
"h+	c #AEA6AC",
"i+	c #6F6B6E",
"j+	c #AFA8AD",
"k+	c #C4BBC1",
"l+	c #3D3A3C",
"m+	c #BCB2B9",
"n+	c #575456",
"o+	c #2C2A2B",
"p+	c #989196",
"q+	c #938A90",
"r+	c #BDB4BA",
"s+	c #C0B6BC",
"t+	c #807A7E",
"u+	c #B4A7B0",
"v+	c #B6A9B2",
"w+	c #7F797D",
"x+	c #3F3B3E",
"y+	c #BAB0B7",
"z+	c #BDB3B9",
"A+	c #7F787D",
"B+	c #C8C0C6",
"C+	c #8F8D8E",
"D+	c #C9C4C8",
"E+	c #716E70",
"F+	c #BCBABC",
"G+	c #858083",
"H+	c #6E696D",
"I+	c #696367",
"J+	c #3D393C",
"K+	c #B5A9B1",
"L+	c #B3A6AF",
"M+	c #A499A1",
"N+	c #938B90",
"O+	c #2A2829",
"P+	c #161415",
"Q+	c #817B7F",
"R+	c #3C373A",
"S+	c #3C383B",
"T+	c #3D393B",
"U+	c #3E3A3D",
"V+	c #151415",
"W+	c #B2A5AD",
"X+	c #B1A3AD",
"Y+	c #B5A7B0",
"Z+	c #2A2729",
"`+	c #403C3E",
" @	c #8D8C8D",
".@	c #2E2D2E",
"+@	c #CFCCCF",
"@@	c #D5D1D3",
"#@	c #868285",
"$@	c #423F41",
"%@	c #2E2D2D",
"&@	c #837E81",
"*@	c #3E3B3D",
"=@	c #B4A8B1",
"-@	c #B1A4AD",
";@	c #B0A2AC",
">@	c #50494E",
",@	c #141314",
"'@	c #786F75",
")@	c #7A7277",
"!@	c #534E51",
"~@	c #6A6468",
"{@	c #BBB1B8",
"]@	c #80797D",
"^@	c #776F75",
"/@	c #AE9FA9",
"(@	c #B2A4AD",
"_@	c #898789",
":@	c #2E2C2D",
"<@	c #595558",
"[@	c #BEBCBE",
"}@	c #726F72",
"|@	c #898688",
"1@	c #D1CDCF",
"2@	c #727072",
"3@	c #858084",
"4@	c #413E3F",
"5@	c #BBAFB7",
"6@	c #B7ACB4",
"7@	c #B4A8B0",
"8@	c #8B8188",
"9@	c #A69CA3",
"0@	c #7D757A",
"a@	c #7A7177",
"b@	c #B7AAB3",
"c@	c #B7ABB4",
"d@	c #B8ACB5",
"e@	c #B9AEB5",
"f@	c #7A7377",
"g@	c #B7ABB3",
"h@	c #7B7378",
"i@	c #C3B9C0",
"j@	c #878386",
"k@	c #5D5B5D",
"l@	c #898588",
"m@	c #CCC5CA",
"n@	c #C0BFBF",
"o@	c #181818",
"p@	c #B0AAAE",
"q@	c #D0CDCF",
"r@	c #C3BABF",
"s@	c #A79EA4",
"t@	c #756B72",
"u@	c #73696F",
"v@	c #71676D",
"w@	c #72686F",
"x@	c #141213",
"y@	c #797176",
"z@	c #504A4E",
"A@	c #7B7379",
"B@	c #BDB3BB",
"C@	c #BEB5BB",
"D@	c #7E787C",
"E@	c #151314",
"F@	c #7D777C",
"G@	c #B1AAAE",
"H@	c #827D80",
"I@	c #858184",
"J@	c #878285",
"K@	c #BEBBBD",
"L@	c #A8A5A8",
"M@	c #A8A6A7",
"N@	c #5D5C5D",
"O@	c #B5AEB3",
"P@	c #161516",
"Q@	c #90878D",
"R@	c #B5A8B1",
"S@	c #AD9FA8",
"T@	c #A99AA5",
"U@	c #A797A3",
"V@	c #383236",
"W@	c #3A3639",
"X@	c #514B4F",
"Y@	c #8E848B",
"Z@	c #B2A6AF",
"`@	c #AFA1AB",
" #	c #615A5F",
".#	c #979095",
"+#	c #565255",
"@#	c #A69CA2",
"##	c #B8ADB4",
"$#	c #7D757B",
"%#	c #A5A1A4",
"&#	c #605F60",
"*#	c #B5AFB3",
"=#	c #181718",
"-#	c #A5A2A5",
";#	c #D2CED2",
">#	c #605E5F",
",#	c #8C898B",
"'#	c #8D898C",
")#	c #8F8E8F",
"!#	c #8D8B8D",
"~#	c #D9D7D9",
"{#	c #A6A3A5",
"]#	c #8B898A",
"^#	c #B6B1B4",
"/#	c #837E82",
"(#	c #857A82",
"_#	c #71666D",
":#	c #70656D",
"<#	c #70666D",
"[#	c #71676F",
"}#	c #9A8E96",
"|#	c #8B8087",
"1#	c #797076",
"2#	c #7B7278",
"3#	c #9B8E97",
"4#	c #AB9DA7",
"5#	c #867B83",
"6#	c #7E777C",
"7#	c #858183",
"8#	c #827D81",
"9#	c #C1B7BD",
"0#	c #ABA2A7",
"a#	c #7D777B",
"b#	c #A2979E",
"c#	c #3F3C3E",
"d#	c #8B878A",
"e#	c #B8B4B7",
"f#	c #8E8B8D",
"g#	c #B9B5B8",
"h#	c #D9D8D8",
"i#	c #A8A6A8",
"j#	c #606060",
"k#	c #767375",
"l#	c #BFBDBF",
"m#	c #CBC6C9",
"n#	c #B7ACB3",
"o#	c #B2A5AE",
"p#	c #AD9FA9",
"q#	c #AB9CA6",
"r#	c #A999A3",
"s#	c #AB9BA5",
"t#	c #B2A4AE",
"u#	c #AA9BA6",
"v#	c #B3A5AF",
"w#	c #C5BCC1",
"x#	c #C2B8BE",
"y#	c #AD9EA9",
"z#	c #C4BBC2",
"A#	c #C7BFC5",
"B#	c #D4D2D4",
"C#	c #B1A3AC",
"D#	c #B3A7AF",
"E#	c #B6AAB3",
"F#	c #B8ABB4",
"G#	c #AEA0AA",
"H#	c #A999A4",
"I#	c #B2A6AE",
"J#	c #BAB0B8",
"K#	c #BAAFB6",
"L#	c #B0A2AB",
"M#	c #CCC5C9",
"N#	c #B5A7B1",
"O#	c #BDB4BB",
"P#	c #BCB2B8",
"Q#	c #C1B8BD",
"R#	c #C7C1C6",
"S#	c #BCB3B9",
"T#	c #B6ABB2",
"U#	c #BBB0B8",
"V#	c #C8C2C7",
"W#	c #CFCBCD",
"X#	c #CFCCCE",
"Y#	c #C7BEC4",
"Z#	c #C1B7BE",
"`#	c #B4A6AF",
" $	c #BBB1B9",
".$	c #CECBCD",
"+$	c #C0B7BE",
"@$	c #B6ABB3",
"#$	c #BEB5BC",
"$$	c #B8ADB5",
"%$	c #B0A3AC",
"&$	c #D9D6D8",
"*$	c #CECACE",
"=$	c #CDC6CA",
"-$	c #B0A1AA",
";$	c #AFA0A9",
">$	c #AFA1AA",
",$	c #D8D5D8",
"'$	c #D5D1D5",
")$	c #B0A1AB",
". + @ # # $ % & * * = # - ; > # - , ' # ) ! ! ~ { ] ^ / = * * * * # # = = = = / ^ = ( _ : < : < = [ # # # # # # # # # # } | ^ 1 1 * * * * ^ 2 3 } ^ # # # 4 5 5 5 5 5 6 7 6 8 9 0 > ; ! ; 5 ; 5 5 5 # = # = # ^ / ^ = = = = = = = = [ a [ a [ a [ $ 5 b c d > e a f ",
". g > h i h - & j k l { @ ! m n n m o # ) p n ~ $ o q } = j * j * | # | < } < } < = 1 1 j 1 j 1 = ^ } r # # # s [ s [ s & a t 1 : * * u < ^ & < ^ ^ [ v h v f f $ o $ > g 6 w 0 x 5 y n g 5 g f 5 f # } | z | h i h A } ^ } ^ } ^ & r | | } | B # $ C p c m g D } f ",
". m p E F a # [ } / G 4 g H I 9 0 J y # { % g + 5 f K } < 1 : 1 j } | | < 2 1 = ^ < = ( j * < : < : j | s L s < = 2 a 3 3 t 1 : * * < 2 2 2 a = = s } F h [ h s { 4 M 5 o $ b c m 5 $ o z f f | f | # | h N | N | z A } ^ } ^ } ^ [ [ r ^ i i e N ' , O P O g Q N ' ",
". O J y v l { M M o % f $ % R x S T H > U % V W f # } | l j : : } | } = 1 j 1 = 2 1 1 * * * j * < 1 j | } [ } & < 3 < = < j : : : < 2 2 2 a s [ s [ a 2 s G e } L s M 5 ' M X Y y N Z K k # a < a = | = N = | = } = } = ` i ^ D a } D  .} [ # i ..5 y H 8 d g 5 ' ' ",
". 7 +.@.#.G f ' ) @ $.%.4 &.) % y O Y 0 0 8 d $ 4 # # } & = l < # } | t j < j < j 1 * * * * * * 1 1 a | r # [ r & < : 3 < < < j 3 s s s | s # { M [ } [ } [ } # [ a G 5 ' / X H > i N *.B a 1 l 1 } = } = } } } = } | ^ z v ^ h =.a N { # [ h { $ 5 g C y g 5 ' M M ",
". ' @.-.c V g % r i / ;.Q >.E %.$.V c ,.'.+.).f $ 4 4 { / !.4 i 4 # } t } l = l ^ ^ : : : : * : 1 a r | h 4 h  .| } < < ^ & a < } # # # # { M f o M # # # # r [ / [ z o f ~.6 ; 5 [ h # f l } # } | = | = | | | = | ^ & = = a ^ a | / M 4 h ~.4 ' 5 > 5 5 ' o $ M [ ",
". ' Y J +.0 {.n >.]./ M Z ^.g 5 5 y /.9 (.c m ~ @ > 5 ' 5 $.> _.> 4 # s # # s # s [ 2 < < < 1 < a s L [ N Z f / 2 a l 2 [ [ [ [ G M M f f ' o @ y $ # # # # L | r v ' > f 5 6 ; :.a ' [ M | | } | = } = = } = = = = a | } } | } | } h N f $ ~.<.5 5 6 > Q { f 5 $ i ",
". > [.d c }.|.+.b :.Z K N Z $.% 5 > p c m g g V ! n g n g 1.y b y > 4 { { &.&.&.&.B &.B i i *.} / ^ [ a [ | } 2 a 2 a 2 | [ G { f ' $ 6 g % > g y % 4 4 M # # # / / $ 7 o $ 6 p 5 *.D *.q t = ^ < < | } = | = = a = | } | | } | } | <.z # M 2.3.5 5 g 6 Z h ' 5 5 N ",
". Y c H w +.4.,.S d %.B 5.%.6.] 5 7.6 C > :.g , H b 7 V n V R V p g > $ $ %.f f f %.f Z >.>.>.4 4 q / | [ M G h F s B q 4 G Z ' % 6 5 5 5 ' ' g y y $ ' $ { M / L ].6 y 5 f C Y > B v # e 8.= } 1 : = | < a } } 4 K *.| } = L A h q ' 5 M ' N <.y y V y 5 5 5 5 6 9.",
". 0.a.0 p g {.b.b.c.d.e.f.f.e.g.h.f.g.i.i.j.; ! 8 k.i.l.m.n.n.n.n.l.l.i.i.i.o.> 5 6 > o 7.7.7.> > 5 Z h G <.5 ' ].G ' ' f ..o g b p.p.p ! p q.> q.o / N Z Z <.h r.M ' % y 6 ! 0 :.K > 4 ..s = : & s.= a 3 | # [ E > / } | } | } $.5 ' o f f o 6 p O 8 b > 5 5 5 n ! ",
". ! 8 t.6 o u.a.|.c $.v.v.v.v.v.v.v.v.v.v.v.m.; ! n w.v.v.v.v.v.v.v.v.v.v.v.x.y.i.z.A.~ 7 V V V b g B.g.g.C.D.N  .$ ' E.F.G.e.h.H.y I.J.K.L.M.l.g.N.N.h.i.i.O.i.h.P.E P.Q.i.m.R.m.g.l.h.G.S.T.^ 4 H.U.e.e.U.e.V.W.N.X.X.Y.Z.X.F.h.i.N.N.`.W.N.k.6 , , 6 6 6 q.b p H ",
". 7.> o f G $.Y  +Y , v.v.v.N ;.i ].f / N.v.v.m.! ! .+v.v.v.! ! ! H t.Y ++@+#+w n.v.v.$+Y c @.@.@.%+&+v.*+n 6 + %.' Z N =+v.v.v.-+@.4.;+>+,+'+)+v.v.v.v.v.v.v.v.v.!+d c c v.v.v.v.v.v.v.v.v.v.# 5 $ ~+v.v.v.v.v.v.v.v.v.{+A v.v.v.v.v.v.v.v.v.v.5 g 6 5 b b p [.[.y ",
". ].4 h G i f b V c S v.v.v.5 Q ^ } } }  .N.v.v.]+Y ^+v.v.v.O d H H /+(+c I._+c :+v.v.v.<++.I 0 [+}+v.v.|+S {./.p y 6 g 1+v.1+v.2+3+K.4+L.L.0 5+v.v.b.6+6+K.7+8+v.|+0 a.0 v.v.^+(+n 6 ^.9+v.v.&.Q # 0+v.v.a+5 5 4 D.{ b+Z.} v.v.k.5 5 5 5 c+v.v.y y 6 > ~ 7 g <.Z ].",
". 2 | & & / d+o > H 3+v.v.v.o N l } ^ | v e+v.v.f+Y g+v.v.v.h+m ! ! i+d ! ! d p n.v.v.v.&+j+k+-.|+v.v.v.l+;+,+K.m+a. +n+v.o+p+v.v.q+4+,.m+r+s+t+v.v.u+v+>+b.4+w+v.x+y+z+a.v.v.A+s+c B+y g v.v.>.B / C+v.v.~+D+g D+E+4 M F+M v.v.k.6 5 6 g p v.v.! b 6 5 5 > o B : * ",
". = j ^ a e 4 h ' 7 S v.v.v.' [ 3 ^ & = a ].N.v.i.n G+v.v.v.v.v.v.v.v.7 ; d b V l.v.m.1+v.1+p H+v.}+I+v.J+K+u+L+u+v+M+v.v.N+L.O+v.P+3+'.K.m+3+Q+v.v.R+S+S+T+U+V+v.J+W+X+Y+v.v.Z+`+|+R.:+*+v.v.g ' h  @v.v.v.v.v.v.m.5 5 ' ' v.v..@f.i.m.n.o+v.v.y , y o $ +@G ^ j * ",
". * * * : a [ } @@N p v.v.v.$ | | s 3 i & / N.v.f.' #@v.v.v.!+$@$@R.v.g g 7 g ' N.v.g.D.v.v.%@v.v.&@Q+v.*@b.=@L+-@;@>@v.,@'@)@!@v.v.~@m+{@m+(.]@v.v.v.v.v.v.v.v.V+^@/@/@(@v.v.v.v.v.v.v.v.v.f+V 6 g _@v.v.o+m.m.:@g.q.5 4 M v.v.v.v.v.v.v.v.v.<@y 5 o M | 3 : a } = ",
". * * * * = | l = B 6 v.v.v.<.| N = } = s [@v.v.}@~.|@v.v.v.H +.! I i+m y 5 9+4 F.v.e.1@0+v.v.v.2@y 3@v.4@9 5@6@7@8@v.v.v.v.v.v.v.v.v.9@y+{@|.0@v.v.-@K+T+v.v.a@b@c@d@e@,+v.v.f@g@h@v.v.*@3+i@(+w w j@v.v.^+x c , k@! 6 o.6 v.v.l@4 0+v.v.m.V 5 o o f { [ l j ^ s M ",
". * * * : < l a t a N v.v.v.m@# } * * 1 n@o@v.v.9+5 k.v.v.v.+.+.H 0 p@J ! 5 ~+<.f.v.`./ } C+v.F.q@<.l@v.n.8 r@a.s@V+v.R+t@u@v@v@w@x@v.,@u+v+v+y@v.v.>+K+u+z@v.v.A@4.B@9 C@v.v.D@{@,+A@E@v.T+d@4+r+S &@v.v.F@3+s+3+G@5 9+g.> v.v.0+' 4 k.&+v.i.4 f 4 @ - 2 : * * * ^ ",
". * * * * * * : l 4 o v.v.v.v.v.v.v.v.v.v.v.v.Y.<.5 ~+v.v.v.^+&@H@G+H@I@J@~+f.K@.@v.o@L@s l M@[ G h N@v.:@O@V %+P@v.v.Q@R@-@S@T@U@V@v.v.W@;@-@X@v.v.Y@Z@`@S@ #v.v.R.h+{..#v.v.+#s+9 m+@#v.v.,@8@7@##$#v.v.v.v.v.v.v.v.v.F.%#v.v.&#G $ 5 *#v.v.=#-#$ 4 L l : ( * * : ",
". * * * * * * : a ;#d+v.v.v.v.v.v.v.v.v.v.v.>#G *.5 ~+v.v.v.v.v.v.v.v.v.v.v.f.,#l@'#)#!#< ~#l l } {#,#]#_@|@^#J@I@/#Q+A+K.g@L+`@(#_#:#<#[#}#|#1#)@2#'@3#4#5#^@6#^+7#G+p@.+^+^+8#.#9#0#]@w+a#0@A@b#y@J+S+R+*@c#`+|+:+$@m.f+j@j@d#l@o.4 e#k.a+f#f#!#g#;#3 h#< < 1 ( * ",
". * * : 1 : * * < i#j#S.X.e.i.!+i.X.G.S.k#l#G Z # l@f.f.f.z.m.i.z.z.O.m.m.i.H.5 5 M i [ a t ^ l L i / h $ <.] % m#V w 0.C@'.n#7@o#;@p#q#r#s#(@>+b.g@t#u#q#v#L.0.c g ~ ; n (+Y H ++w#x#I I x#S 0 C@6+b.>+y#o#K+b.[+z#V 5 u.A#/.; 6 o 5 M # L 3 < | # ^ = [ # a = < * ",
". : : : 1 = < : 3 [ a i / M :.b q.] o M ' { i [ *.{ o o 5 ~ 5 g # 7 c 5 ).g 5 6 5 5 o B#/ a [ } L # # # # $ Q Z E 5 y Y  +a.y+g@>+R@u+o#C#C#D#E#F#>+G#H#o#9 Y ; b % > > > y 6 7 7 7 V ! ++S {. + +-.C@;+I#L+K+b@L.0 m C 5 o q.> > W o M # l | # # # L / # { { # 2 : ",
". = = _ _ j t 2 3 # h z *. .].$ M 6 5 o M $ [ =.Z # { M ' # ' # # o ' o 5 o 5 , > 5 M o { { } # {  .G G { { M { h $ > ! 0.9#L.J#e@g@>+>+b@b.K#y+e@v+L#X+|.Y R b g > 5 > g 6 g 5 7.5 M#> V u.(+++@.I S ,.;+N#7@F#J#O#;+P#H q.6 > ; c y M # # # { # L 3 & # f 4 # # & ",
". 1 1 : * * * * t } < l 4 o ' M W , 6 > o # 2 r l G Q ' { # # # # L = [ <./ ' ' o > 5 5 M $ M ' 5 ] Q q@' o <.Q q@Q 6 [.J Q#4.6+;+;+y+,.4.9 9 m+K#g@R@6+x#Y c V X g b g - > M 7.6.] y #.g m V V R#L. +9#m+b.b@b@e@S#T###U#|.z+c c ; > M # # { ' 4 ^ < } L L L L L / ",
". * j 1 * * * * * * : B#f M > V#7 ! ! 7 o ] <./ *./ a M o # # # L : : 1 _ 1 [ = / 1.5 5 5 5 5 > 6 5 ] <.W#Z >.Z X#$.q.Y#I 9 ,.K.e@K.9 {.++{.C@K.b.g@K#L.0 Z#9 /.Y /.6 g ~ M o o W#o Q Q 5 a.; y > y t.@.r+L.{@6+,+U#,.9 4.K+u+K.c + 5 f { # % 5 M 2 j < 1 1 1 < < 2 ",
". : j 1 j 1 * * : < : j & # 4 g /.0 ! g # } i M o # # o o # # L : ^ = # ( [ A : L l r <.5 5 6 7 ).; g 7 6 > 7.<.^.> ; Y {.0 J.,.m+9 I Y#u.Y 3+6+`#t# $r+r+s+{.c I S J u.7 7.Z f #..$#.<.N %.C p V b g 9#a.I I a.7+r+S S ++J ++k+3+C@-.+.b 4 # # # $ B#: : * : 1 } } ",
". j j * : j 1 : * 3 i a [ B#5 ~ w 0 c 7 5 5 5 o ' / 2 { ' # L : * / ( L j = [ j [ ^ r l $ o 5 6 6 g 7 g > > > 5 > n p Y k+-.0 a.+$@.H V b c L.T#I#I#@$K#{@C@+.p t.H {.#$d ; m@> 5 5 $.#.X#6.<.o > 5 $.J H /.w (+I x /.J w ; c c Z#{.3+I u.W # # # # } = 1 < j : < < ",
". * * * * * * * : 3 & 3 [ } 4 5 ~ ; p 7 5 5 ' # # / F / = / : : : ^ = h#= : : [ A : [ ^ L # ' o O n g 7 y > 5 > g 7 ! c {.S (.s+0., g 1.w 0 $$-@G#%$t#R@5@0 Y g 6 p x 3+k+T ! ! V g > o <.$.<.5 5 7.$.b ; V > y p ! u.; ; > 7 6 7 ; S I b 7 W { # # # l : 2 3 : 2 ^ ",
". j j * : j 1 * j < = [ } N o o o #.5 5 5 o N # # i # / &$/ = = * / : L j = L j [ : ( : [ a Q M *$M =$^.m#6 5 > % > , t.0.0 s+-.H g o X J P#>+C#-$;$>$L+'.{.p y ] ^.p /.{.9#+./.! ! u.V g 5 $.5 ; ; 5 5 ; ; > b 5 ; M#5 5 5 5 b ; d Z#-.+.m g 5 4 # # # # ^ : : : ^ ",
". * * * * * * * j = = & M Z a # # h <.> g g 5 $.X#r.i / l = = # : j / j = j * [ l : [ j : [ ,$'$a [ # # # $ Q ' > n H J I s+(.0 c y 5 q.I K.R@)$;$-$L#u+'.{.p y % <.5 X J +.+.J c +.++++H V > 5 5 5 5 ; J 6 b 5 5 I.g ] 5 > b J +.3+9 a.I m g y W $ 4 # l } ^ 2 l < "};
