/* XPM */
static char * logoesisar2_xpm[] = {
"204 50 16 1",
" 	c None",
".	c #AFDFDF",
"+	c #7FCCCC",
"@	c #6FC5C5",
"#	c #3FB2B2",
"$	c #BFE5E5",
"%	c #9FD9D9",
"&	c #009999",
"*	c #2FACAC",
"=	c #4FB9B9",
"-	c #8FD2D2",
";	c #1FA5A5",
">	c #DFF2F2",
",	c #0F9F9F",
"'	c #CFECEC",
")	c #5FBFBF",
"                                                                                                                                                                                                            ",
"                                                                                                                                                                                                            ",
"                                                                                                                                                                                                            ",
"                                                                                                                                                                                                            ",
"                                                   .+@#####++.$                                       $++#####@+%$                                                                                          ",
"      $&&&&&&&&&&&&&&&&&&&&&&&&&&&+             %*&&&&&&&&&&&&&&&            $&&&&&&               $=&&&&&&&&&&&&&&&$                        -&&&&&&&%                    $&&&&&&&&&&&&&&&&&&*#+.           ",
"      $&&&&&&&&&&&&&&&&&&&&&&&&&&&+           $;&&&&&&&&&&&&&&&&&$           $&&&&&&             >#&&&&&&&&&&&&&&&&&+                        ,&&&&&&&=                    $&&&&&&&&&&&&&&&&&&&&&&,+         ",
"      $&&&&&&&&&&&&&&&&&&&&&&&&&&&+          %&&&&&&&&&&&&&&&&&&&$           $&&&&&*            ',&&&&&&&&&&&&&&&&&&+                       +&&&&&&&&&>                   $&&&&&&&&&&&&&&&&&&&&&&&&,'       ",
"      $&&&&&&&&&&&&&&&&&&&&&&&&&&&%         .&&&&&&&&=+$$$$+@#&&&%           $&&&&&#           >,&&&&&&&*+.$$$-+#,&&)                       ,&&&&&&&&&-                   $&&&&&&&&&&&&&&&&&&&&&&&&&,'      ",
"      $&&&&&+                   '$          ,&&&&&&@           $@%           $&&&&&#           #&&&&&&#>          '-@                      +&&&&;=&&&&*                   $&&&&&.           $+;&&&&&&,      ",
"      $&&&&&+                              +&&&&&&%                          $&&&&&#          $&&&&&&)                                     ,&&&&%.&&&&&'                  $&&&&&$              +&&&&&&)     ",
"      -&&&&&+                              *&&&&&-                           $&&&&&)          @&&&&&=                                     )&&&&#  ,&&&&@                  $&&&&&$               @&&&&&,     ",
"      +&&&&&-                              &&&&&,                            $&&&&&+          #&&&&&'                                    >&&&&&$  )&&&&;                  $&&&&&$                ,&&&&&$    ",
"      +&&&&&$                             $&&&&&#                            $&&&&&+          &&&&&&                                     )&&&&#   '&&&&&.                 $&&&&&$                =&&&&&-    ",
"      +&&&&&$                             $&&&&&#                            $&&&&&+          &&&&&&                                    >&&&&&$    ;&&&&)                 $&&&&&$                +&&&&&+    ",
"      +&&&&&$                             >&&&&&&                            $&&&&&+          ;&&&&&.                                   )&&&&=     +&&&&,                 .&&&&&>                +&&&&&+    ",
"      +&&&&&$                              ;&&&&&-                           $&&&&&$          )&&&&&=                                  $&&&&&>     >&&&&&%                +&&&&&                 +&&&&&.    ",
"      +&&&&&$                              +&&&&&,>                          -&&&&&$          $&&&&&&.                                 #&&&&)       #&&&&*                +&&&&&                 #&&&&&'    ",
"      +&&&&&'                               ;&&&&&*                          +&&&&&$           =&&&&&,'                               $&&&&&>       %&&&&&>               +&&&&&                 &&&&&;     ",
"      @&&&&&                                $&&&&&&*                         +&&&&&$            ,&&&&&,'                              *&&&&)         &&&&&@               +&&&&&                +&&&&&+     ",
"      #&&&&&                                 %&&&&&&*                        +&&&&&$            ',&&&&&,'                            %&&&&,          )&&&&;               +&&&&&               $&&&&&;      ",
"      #&&&&&                                  %&&&&&&,'                      +&&&&&$             ',&&&&&&%                           ;&&&&+          .&&&&&.              +&&&&;              .,&&&&&$      ",
"      #&&&&&                                   %&&&&&&&%                     +&&&&&               ',&&&&&&)                         %&&&&,            ;&&&&=              +&&&&#            >=&&&&&&%       ",
"      #&&&&&&&&&&&&&&&&&&&&&&&&+                %,&&&&&&)                    +&&&&&                ';&&&&&&*>                       ,&&&&+            @&&&&&              )&&&&#  >$>    $+*&&&&&&,.        ",
"      #&&&&&&&&&&&&&&&&&&&&&&&&+                 ',&&&&&&*>                  @&&&&&                  *&&&&&&,$                     +&&&&&.$$$$$$$$$$$$-&&&&&-             #&&&&#   ,&&&&&&&&&&&&&)>         ",
"      #&&&&&&&&&&&&&&&&&&&&&&&&+                   *&&&&&&,$                 #&&&&&                   )&&&&&&&-                    ,&&&&&&&&&&&&&&&&&&&&&&&&*             #&&&&#   .&&&&&&&&&&*@>           ",
"      ,&&&&&&&&&&&&&&&&&&&&&&&&-                    )&&&&&&&-                #&&&&&                    %&&&&&&&)                  @&&&&&&&&&&&&&&&&&&&&&&&&&&'            #&&&&#    =&&&&&+-$               ",
"      &&&&&#                                         %,&&&&&&)               #&&&&&                     ';&&&&&&*                >&&&&&&&&&&&&&&&&&&&&&&&&&&&)            #&&&&=     ,&&&&+                 ",
"      &&&&&#                                          ';&&&&&&)              #&&&&&                       #&&&&&&*               =&&&&&#################,&&&&,            #&&&&+     -&&&&&'                ",
"      &&&&&#                                            *&&&&&&)             #&&&&&                        )&&&&&&*             $&&&&&)                 )&&&&&%           &&&&&+      #&&&&;                ",
"      &&&&&+                                             =&&&&&&-            ,&&&&#                         +&&&&&&=            #&&&&&>                 '&&&&&#           &&&&&+      >,&&&&@               ",
"     $&&&&&+                                              )&&&&&&'           &&&&&#                          %&&&&&&-          .&&&&&)                   ;&&&&&>          &&&&&+       +&&&&&$              ",
"     $&&&&&+                                               *&&&&&#           &&&&&#                           )&&&&&,          ;&&&&&>                   -&&&&&@          &&&&&+        *&&&&;              ",
"     $&&&&&+                                               >,&&&&&'          &&&&&#                            *&&&&&-        %&&&&&)                     &&&&&,         >&&&&&+        '&&&&&@             ",
"     $&&&&&+                                                @&&&&&+          &&&&&#                            .&&&&&#        ,&&&&&>                     )&&&&&%        $&&&&&+         +&&&&&$            ",
"     .&&&&&-                                                $&&&&&=         $&&&&&#                             &&&&&,       +&&&&&)                      .&&&&&=        $&&&&&+          ;&&&&;            ",
"     +&&&&&$                                                $&&&&&#         $&&&&&#                             &&&&&&      >,&&&&&>                       ;&&&&&>       $&&&&&-          $&&&&&@           ",
"     +&&&&&$                                                %&&&&&=         $&&&&&#                            >&&&&&,      )&&&&&)                        +&&&&&+       %&&&&&$           =&&&&&$          ",
"     +&&&&&$                                                )&&&&&+         $&&&&&#                            %&&&&&#     '&&&&&,>                        >&&&&&;       +&&&&&$            ,&&&&;          ",
"     )&&&&&$                                               '&&&&&&'         %&&&&&#                            ;&&&&&-     #&&&&&+                          *&&&&&.      +&&&&&$            -&&&&&@         ",
"     #&&&&&$                             =)'              $,&&&&&;          +&&&&&+         +=.              >*&&&&&&>    $&&&&&,                           -&&&&&=      +&&&&&$             *&&&&&.        ",
"     #&&&&&%$$$$$$$$$$$$$$$$+++++        #&&;@$         ')&&&&&&&$          +&&&&&+         +&&,).         >+,&&&&&&+     ;&&&&&+                            &&&&&&      #&&&&&$             $&&&&&,        ",
"     #&&&&&&&&&&&&&&&&&&&&&&&&&&&        @&&&&&&*#++++#;&&&&&&&&%           +&&&&&+         .&&&&&&;#@+++=*&&&&&&&&)     %&&&&&,                             =&&&&&-     #&&&&&$              =&&&&&=       ",
"     ,&&&&&&&&&&&&&&&&&&&&&&&&&&&        +&&&&&&&&&&&&&&&&&&&&,%            @&&&&&+         $&&&&&&&&&&&&&&&&&&&&&@      ,&&&&&+                             %&&&&&;     #&&&&&$              >&&&&&&.      ",
"     &&&&&&&&&&&&&&&&&&&&&&&&&&&*        -&&&&&&&&&&&&&&&&&&&)>             #&&&&&+         '&&&&&&&&&&&&&&&&&&&#$      +&&&&&,                               &&&&&&$    ;&&&&&$               @&&&&&,      ",
"     ###########################@          $+=;&&&&&&&&&&&*->               @#####%           $-)*&&&&&&&&&&&;@'        ######-                               @#####-    ######'                ######-     ",
"                                                $$+++++.'                                          '$-++++%$                                                                                                ",
"                                                                                                                                                                                                            ",
"                                                                                                                                                                                                            ",
"                                                                                                                                                                                                            "};
