/* XPM */
static char * logoinpg_xpm[] = {
"120 79 64 1",
" 	c None",
".	c #F9C7A3",
"+	c #4AB4B6",
"@	c #00A4A3",
"#	c #F96C00",
"$	c #F3AB77",
"%	c #F2B791",
"&	c #FE4700",
"*	c #FBFCFD",
"=	c #F1914C",
"-	c #F68F36",
";	c #F5D4C5",
">	c #13A7A7",
",	c #009695",
"'	c #CCE4EA",
")	c #71C0C4",
"!	c #FE3500",
"~	c #B0D6DA",
"{	c #21A7A7",
"]	c #5FBCBF",
"^	c #F7E4E6",
"/	c #FC5800",
"(	c #80C7CA",
"_	c #08A7A7",
":	c #C3CFCC",
"<	c #E69E6E",
"[	c #E5E5E8",
"}	c #00AAAB",
"|	c #F67C09",
"1	c #3CB5B8",
"2	c #98CDD1",
"3	c #9FD3D6",
"4	c #ECBEAD",
"5	c #D2DCDF",
"6	c #27B2B4",
"7	c #FBEEF1",
"8	c #BCDDE0",
"9	c #E9DAE0",
"0	c #F0C9BD",
"a	c #F39E5A",
"b	c #0DACAE",
"c	c #18AEB0",
"d	c #DDEDF5",
"e	c #28ACAE",
"f	c #01A7A7",
"g	c #1DB7B9",
"h	c #91C5CC",
"i	c #05ADAE",
"j	c #00A2A1",
"k	c #D6926C",
"l	c #009E9E",
"m	c #F58422",
"n	c #8BCDCF",
"o	c #0DA7A7",
"p	c #36AEAF",
"q	c #00A6A5",
"r	c #E3BFC6",
"s	c #D25100",
"t	c #92CFD1",
"u	c #008886",
"v	c #E88846",
"w	c #D08E2B",
"x	c #0FC1C4",
"y	c #86C1C8",
"                                                                                ;/&&&|                                  ",
"                                                                                -&&&&.                                  ",
"                                                                               .&&&!-                                   ",
"                                                                               |&&&!;                                   ",
"                                                                              $!&&&a                                    ",
"                                                                              /&&&|^                                    ",
"                                                                             a!&&&$                                     ",
"                                                                            ;/&&&|                                      ",
"                                                                            -&&&&%                                      ",
"                                                                           .&&&&|  8                                    ",
"                                                                           m&&&!. d}'                                   ",
"                                                                          $!&&&a  ],1                                   ",
"                                                                                 'qqq8                                  ",
"                                                                                 1@fl6                                  ",
"                                                                                ~jflfl3                                 ",
"                                                                                1@flflf                                 ",
"                                                                               3jfflfll'                                ",
"                                                                               bqq_flf]                                 ",
"                                                                              (jffoflf                                  ",
"                                                                             7flfllfl3                                  ",
"                                                                             )jffo_fc                                   ",
"                                                                            'qqq_ofj3                                   ",
"                                                                            ],_fc_f1                                    ",
"                                                                           ~jflfllf5                                    ",
"                                                                           6@fofjj]                                     ",
"                                                                          3jflfllf^                                     ",
"                                                                          c@fo>of(   1                                  ",
"                                                                         nlfofjje   ],~                                 ",
"                                                                         flfllfj3  [lfo                                 ",
"                                                                        )jflfll1   ],_,~                                ",
"                                                                       [lqq_oof~  5@fo>6                                ",
"                                                                       ],_ofjj]   +@fo>l3                               ",
"                                                                      ~jfofjjf^  2@fo>l@6                               ",
"                                                                      1@fofjj]   1qq_oo_ft                              ",
"                                                                     3jfofjje7  nl>o{{{>o{                              ",
"                                                                     c@_fc_@(   {{>{{>{{{>t                             ",
"                                                                    nl>ofjje   ]jf{{>{{{{>{                             ",
"                                                                    }qq_oo_~  ^@fo>6{{>{{{j(                            ",
"                                                                   )jfofjj]   ]@6{{>{{{{{>qq                            ",
"                                                                  'qq_fc_@5  8@fo>6{{{>{{{jj(                           ",
"                                                                  1jffo_j]   1q{{>{{{{{{>{{qq7                          ",
"                                                                 ~lfo>ofl^  2jf{{{>{{{{{{{>qj(                          ",
"                                                                 1@fo>of)   {qq_oo_{{>{{{{{{qq7                         ",
"                                                                2@flfllf^  njf{{{{>{{{{{{{{>qj)                         ",
"                                                                c@_ofjjn  [flf{{>{{{{{{{{{>{{q@'                        ",
"                                                               tlfo>_f1   ]jof{{>{{{{{{{{{{>qjl)                        ",
"                                                              7fqq_oo_~  [fqq_oo_{{{>{{{{{{{{flf'                       ",
"                                                              )jfo_fc]   +@flfllfj@fo>l@@fo>l@@,1                       ",
"                                                             8@@fo>l@8  3jfo_{{111++++++++++11bqu~                      ",
"                                                             1@fo>jf)   yn~5                   (88                      ",
"                                                            8@@fc+33                                                    ",
"                                                            c}ny            **8y)h33nyt33])h57*                         ",
"                                                           88        * +((],_oflfllfj@,,,jffo_j_1((                     ",
"                                                                  2(c@_ou,,jqq_oo1])])]11bi}q@fou,ug                    ",
"                                                              3(cjffo_1(nyt'7*7*          **7[y)t)g,t                   ",
"                                                           t6@,,j])h[[                             'd                   ",
"                                                        :xlfo+(d[                                                       ",
"                                                     ;-wgx]~                                                            ",
"                                                   4m&|:'                                                               ",
"                                                 $##a0                                                                  ",
"                                               $##.                                                                     ",
"                                             ;--4                                                                       ",
"                                           ;aa                                                                          ",
"                                          %%;                                                                           ",
"                                        ;$0                                                                             ",
"                                       [[                                                                               ",
"                                                                                                                        ",
"                                        <......$                                                                        ",
" bq}1 7fqi}q2    c}qt nl>obq}i}1d    ;a#&&&!!&&&*                                                                       ",
" qq_+ 7fqi@fo    jff3 (jqq_oo_@f1   <#&!&&&&&&!/*                                                                       ",
" qq_+ 7qq_oo_(  [lqj5 (jq@(*8flfl  [/&&&&$*    7*                                                                       ",
"~jfo) ^@qq+@ff  7qfl^ )jfo5  eqq_  $!&&&7                                                   *<<<0        %<<$           ",
"~lfl) ^qq_:+@f] [lqj^ )jfo52+@ff1  &&&/4  7----|.  **                                       */&&a        -&&#*          ",
"tl_ft 8qq_ ~jfo7*@fo  +@fo^1@fo>   !&&#*  */!&&&%7--aa|&. 9aa|&&--; %m--a-&&#-4  4m=m&|m-$  */!&|m&/-a*  /&&#  4aa|##-a ",
"2jff) ~jfo  ]@@]9@f1  ]@@_*86e2    !&&&0  *|#&/&..!&&&#&^%/&&a4m!&m*<!&&#&|#&!#  #&!#4<#&&| 7/&&v;%m&&|* !&&v $#&&$%=!&m",
"(jq@h )qqe  7qfo+@f1  eqqq7        a!&&-9   $!&# ;/&&$   &&&/--|&&|*<!!#^  =!&|9a&&|*  $/&&4r#&/   ;&&&a /&&a*|&&&vv|&&!",
"],_o: +@@6   ]joqq_+  eqqb*        [/!&&#$$$-&&# .&&&*   /&&#=      -!&&   |&&m $!&#0  a!&/ v/&&4  $/&&.*/!&%7#&/&s  kk ",
"+@@o9 ],_o   ^@qofj+  eqq_*         ;m&//&&&##/# =!&&    $#&&|aa=<  /&&&   |!&m 7|&&#a|&&#. =!&&##/&&&a %/!&$ %/!&&-=m= ",
"eqqb9 ]@fo    ]@@_@]  {qq_*           $$##/##/m% 4<$$     4%<|&-a; *<$$%   4a$0   $%=m-$$   0$$%;avv$0  .$$%;   $avv=<. "};
