/* XPM */
static char * pion_noir_xpm[] = {
"49 49 186 2",
"  	c None",
". 	c #282828",
"+ 	c #222222",
"@ 	c #242424",
"# 	c #262626",
"$ 	c #212121",
"% 	c #232323",
"& 	c #2C2C2C",
"* 	c #2E2E2E",
"= 	c #313131",
"- 	c #393939",
"; 	c #1B1B1B",
"> 	c #181818",
", 	c #1A1A1A",
"' 	c #1D1D1D",
") 	c #202020",
"! 	c #252525",
"~ 	c #292929",
"{ 	c #2B2B2B",
"] 	c #2D2D2D",
"^ 	c #2F2F2F",
"/ 	c #363636",
"( 	c #3F3F3F",
"_ 	c #1C1C1C",
": 	c #141414",
"< 	c #131313",
"[ 	c #171717",
"} 	c #1E1E1E",
"| 	c #333333",
"1 	c #353535",
"2 	c #373737",
"3 	c #414141",
"4 	c #101010",
"5 	c #1F1F1F",
"6 	c #272727",
"7 	c #3C3C3C",
"8 	c #3E3E3E",
"9 	c #404040",
"0 	c #3D3D3D",
"a 	c #3B3B3B",
"b 	c #151515",
"c 	c #0E0E0E",
"d 	c #121212",
"e 	c #161616",
"f 	c #444444",
"g 	c #464646",
"h 	c #474747",
"i 	c #484848",
"j 	c #454545",
"k 	c #434343",
"l 	c #0B0B0B",
"m 	c #0D0D0D",
"n 	c #111111",
"o 	c #191919",
"p 	c #323232",
"q 	c #4A4A4A",
"r 	c #4D4D4D",
"s 	c #4F4F4F",
"t 	c #515151",
"u 	c #525252",
"v 	c #505050",
"w 	c #4C4C4C",
"x 	c #0A0A0A",
"y 	c #0F0F0F",
"z 	c #383838",
"A 	c #4E4E4E",
"B 	c #555555",
"C 	c #595959",
"D 	c #5B5B5B",
"E 	c #5A5A5A",
"F 	c #585858",
"G 	c #494949",
"H 	c #070707",
"I 	c #090909",
"J 	c #565656",
"K 	c #5F5F5F",
"L 	c #636363",
"M 	c #656565",
"N 	c #666666",
"O 	c #646464",
"P 	c #626262",
"Q 	c #5E5E5E",
"R 	c #545454",
"S 	c #696969",
"T 	c #6D6D6D",
"U 	c #707070",
"V 	c #727272",
"W 	c #717171",
"X 	c #6C6C6C",
"Y 	c #686868",
"Z 	c #5D5D5D",
"` 	c #040404",
" .	c #080808",
"..	c #0C0C0C",
"+.	c #3A3A3A",
"@.	c #676767",
"#.	c #6E6E6E",
"$.	c #737373",
"%.	c #787878",
"&.	c #7C7C7C",
"*.	c #7D7D7D",
"=.	c #7B7B7B",
"-.	c #777777",
";.	c #020202",
">.	c #050505",
",.	c #7E7E7E",
"'.	c #848484",
").	c #878787",
"!.	c #898989",
"~.	c #868686",
"{.	c #828282",
"].	c #757575",
"^.	c #4B4B4B",
"/.	c #030303",
"(.	c #5C5C5C",
"_.	c #808080",
":.	c #888888",
"<.	c #8F8F8F",
"[.	c #949494",
"}.	c #969696",
"|.	c #959595",
"1.	c #929292",
"2.	c #8D8D8D",
"3.	c #010101",
"4.	c #343434",
"5.	c #606060",
"6.	c #6A6A6A",
"7.	c #747474",
"8.	c #7F7F7F",
"9.	c #999999",
"0.	c #A0A0A0",
"a.	c #A3A3A3",
"b.	c #A2A2A2",
"c.	c #9E9E9E",
"d.	c #989898",
"e.	c #424242",
"f.	c #000000",
"g.	c #797979",
"h.	c #858585",
"i.	c #909090",
"j.	c #9B9B9B",
"k.	c #A4A4A4",
"l.	c #ABABAB",
"m.	c #AFAFAF",
"n.	c #AAAAAA",
"o.	c #979797",
"p.	c #616161",
"q.	c #575757",
"r.	c #303030",
"s.	c #A1A1A1",
"t.	c #ADADAD",
"u.	c #B6B6B6",
"v.	c #BCBCBC",
"w.	c #BBBBBB",
"x.	c #B4B4B4",
"y.	c #A9A9A9",
"z.	c #7A7A7A",
"A.	c #6F6F6F",
"B.	c #535353",
"C.	c #8C8C8C",
"D.	c #A5A5A5",
"E.	c #B2B2B2",
"F.	c #BEBEBE",
"G.	c #C6C6C6",
"H.	c #C4C4C4",
"I.	c #A6A6A6",
"J.	c #B3B3B3",
"K.	c #BFBFBF",
"L.	c #C8C8C8",
"M.	c #B0B0B0",
"N.	c #8A8A8A",
"O.	c #B9B9B9",
"P.	c #C0C0C0",
"Q.	c #ACACAC",
"R.	c #939393",
"S.	c #9D9D9D",
"T.	c #A7A7A7",
"U.	c #9A9A9A",
"V.	c #838383",
"W.	c #6B6B6B",
"X.	c #767676",
"Y.	c #818181",
"Z.	c #8B8B8B",
"`.	c #919191",
" +	c #060606",
".+	c #2A2A2A",
"                                                                                                  ",
"                                                                                                  ",
"                                                                                                  ",
"                                                                                                  ",
"                                      . + @ # $ % & * = -                                         ",
"                                + ; > , ' ) % ! ~ { ] * ^ = / (                                   ",
"                            _ : < [ , } + ! ~ & ^ = | 1 / 2 2 / - 3                               ",
"                          < 4 < [ , 5 % 6 { ^ | / - 7 8 ( 9 ( 8 0 a (                             ",
"                      b c c d e , 5 % . & = 1 - 8 3 f g h i i h j k 9 ( f                         ",
"                    : l m n b o } % . ] p 2 7 3 j q r s t u t v s w i f 3 h                       ",
"                  < x l y : > ' + 6 ] p z 0 k i A u B C D D D E F B t w h f G                     ",
"                y H I m n e ; ) ! { = 2 0 k q v J D K L M N N O P Q E R s G k i                   ",
"                H H l y : > ' % ~ ^ / 0 k q t F K O S T U V W U X Y L Z J v G j                   ",
"              I `  ...n b , ) # & | +.3 G v F K @.#.$.%.&.*.*.=.-.V X M Q J s h j                 ",
"            d ;.>.x c d [ _ + . ^ / 8 j A J Q @.U -.,.'.).!.!.~.{.&.].T M Z R w f ^.              ",
"            H /.H l y < o } @ { p - 3 G u (.M #.-._.:.<.[.}.|.1.2.~.,.].X L C v h f               ",
"          d 3./.H l 4 b , 5 # ] 4.7 f r J 5.6.7.8.!.1.9.0.a.b.c.d.<.~.&.V Y Q R ^.e.G             ",
"           .f.`  ...4 e ; $ 6 * / 8 h v C O #.g.h.i.j.k.l.m.m.n.b.o.2.{.-.X p.q.A j k             ",
"          ;.3.`  ...n e ; + . r.2 ( i u (.N W *.!.|.s.t.u.v.w.x.y.c.1.~.z.A.O E v g (             ",
"        < f.3.>. ...n e _ + ~ r.z 9 G B.Z @.$.8.C.d.D.E.F.G.H.w.m.b.|.!.&.U N D t h 8 g           ",
"        I f.3.>. ...n e _ + ~ r.z 9 G B.Z Y $.8.2.9.I.J.K.L.G.v.M.b.}.!.*.W M E t h 8 8           ",
"        I f.3.`  ...n e _ + ~ r.2 ( G u (.@.V ,.N.o.a.m.O.P.F.u.Q.0.R.).=.U O E v g 8 8           ",
"        x f.f.`  ...n e ; $ . ^ / 8 h v E M A.=.).1.S.T.m.J.J.t.k.U.<.V.%.T P F A j 0 7           ",
"        f.f.f.` H l 4 b , ) # ] 4.7 j A q.p.W.X.Y.Z.|.S.a.T.I.b.j.1.:.,.$.S K B w k a 4.          ",
"        f.f.f./.H l y : o 5 ! { p +.e.^.B.(.N A.g.{.Z.`.}.9.9.}.i.!._.-.#.O E u G 9 - p           ",
"        x f.f.;. +x c < > ' % ~ r.2 ( h s q.5.S V z.Y.).Z.2.C.!.h.8.%.U @.Q J r j 0 1 /           ",
"        I f.f.3.>.I ..n e ; $ 6 ] 4.+.e.q u C P S U X.=.8._._.,.z.].A.@.5.F v i 3 - p 4.          ",
"        I f.f.3.` H l y : o } @ .+r.2 0 j w B.E p.@.X U $.7.].$.A.W.M K F t q k 7 1 ^ p           ",
"        < f.f.f.;. +x m d e _ $ # & p z ( g w u F Z P M Y S S @.M p.(.q.t q f 0 2 = { /           ",
"          ;.f.f.3.`  ...y : o } % . * | - ( j q v R F (.Z Q Q Z D q.B.A G f 8 z | ] ~             ",
"           .f.f.f./. +x m d e , 5 @ ~ * | - 8 e.i w s t B.R R B.t A q g e.0 z | ] . {             ",
"          d f.f.f.3.`  .l y < [ ; ) ! ~ * | 2 a 9 k g i q ^.q G i g e.( a / p ] . % =             ",
"             +f.f.f.;.>.I ..4 : > _ ) @ ~ ] = 4.z a 8 9 3 e.3 3 ( 0 +.2 4.r.& . % !               ",
"            n f.f.f.3./. +I m n : > _ 5 % 6 { * = 4./ 2 - - - z 2 1 | r.] .+# + 5 &               ",
"               .f.f.f.3.` H x m n : [ ; } $ ! . .+] * r.= = = = r.* & .+6 @ ) ' +                 ",
"                ` f.f.f.;.` H x m 4 < e o _ 5 $ @ # . ~ .+.+.+.+~ 6 # % $ } ; _                   ",
"                ..3.f.f.f.;.>.H x m y d b [ , _ } ) $ + % % % % + $ 5 ' _ o > $                   ",
"                  c ;.f.f.f.;.` H I l c 4 d : [ o , ; _ ' ' ' ' _ ; , > e [ $                     ",
"                    m ;.f.f.f.;.`  + .x ..c 4 d < b e [ [ [ [ [ [ e b < < '                       ",
"                      m /.f.f.f.3./.>. +I x ..m y 4 n n d d d d d n 4 d ,                         ",
"                           .3.f.f.f.3./.>.H  .I l ..m m m c c m m m <                             ",
"                            y ` f.f.f.f.3./.`  +H  .I I I x x x m >                               ",
"                                n  .;.f.f.f.3.;.;./.` >.>.H c >                                   ",
"                                      d l x x 3.3.x l ..:                                         ",
"                                                                                                  ",
"                                                                                                  ",
"                                                                                                  ",
"                                                                                                  ",
"                                                                                                  "};
