/* XPM */
static char * pion_blanc_xpm[] = {
"49 49 334 2",
"  	c None",
". 	c #BFB9B9",
"+ 	c #A8A0A0",
"@ 	c #999090",
"# 	c #918787",
"$ 	c #8C8181",
"% 	c #918686",
"& 	c #9B9191",
"* 	c #A9A0A0",
"= 	c #BDB6B6",
"- 	c #AAA3A3",
"; 	c #827878",
"> 	c #7E7373",
", 	c #817676",
"' 	c #847878",
") 	c #867B7B",
"! 	c #897D7D",
"~ 	c #8B7F7F",
"{ 	c #8D8080",
"] 	c #8E8282",
"^ 	c #908383",
"/ 	c #918484",
"( 	c #928686",
"_ 	c #ABA1A1",
": 	c #968E8E",
"< 	c #796E6E",
"[ 	c #7C7171",
"} 	c #7F7474",
"| 	c #827777",
"1 	c #857A7A",
"2 	c #8C7F7F",
"3 	c #938686",
"4 	c #958888",
"5 	c #968989",
"6 	c #978A8A",
"7 	c #988B8B",
"8 	c #978989",
"9 	c #9F9393",
"0 	c #A7A1A1",
"a 	c #766B6B",
"b 	c #786E6E",
"c 	c #807474",
"d 	c #837878",
"e 	c #877B7B",
"f 	c #8A7E7E",
"g 	c #8E8181",
"h 	c #948787",
"i 	c #998C8C",
"j 	c #9B8E8E",
"k 	c #9D8F8F",
"l 	c #9E9090",
"m 	c #9F9191",
"n 	c #9C8E8E",
"o 	c #9A8D8D",
"p 	c #A99E9E",
"q 	c #837A7A",
"r 	c #746A6A",
"s 	c #786D6D",
"t 	c #8F8383",
"u 	c #9D9090",
"v 	c #A09292",
"w 	c #A39494",
"x 	c #A49696",
"y 	c #A69797",
"z 	c #A69898",
"A 	c #A79898",
"B 	c #A59797",
"C 	c #A39595",
"D 	c #A19393",
"E 	c #D1CBCB",
"F 	c #766D6D",
"G 	c #736969",
"H 	c #776D6D",
"I 	c #7B7070",
"J 	c #998B8B",
"K 	c #A79999",
"L 	c #AA9B9B",
"M 	c #AC9D9D",
"N 	c #AE9F9F",
"O 	c #AF9F9F",
"P 	c #AD9E9E",
"Q 	c #AB9C9C",
"R 	c #A89A9A",
"S 	c #A29494",
"T 	c #C3BBBB",
"U 	c #726868",
"V 	c #7A6F6F",
"W 	c #B2A2A2",
"X 	c #B4A5A5",
"Y 	c #B6A6A6",
"Z 	c #B7A7A7",
"` 	c #B6A7A7",
" .	c #B5A5A5",
"..	c #B3A3A3",
"+.	c #B0A0A0",
"@.	c #C1B8B8",
"#.	c #736A6A",
"$.	c #706666",
"%.	c #807575",
"&.	c #8F8282",
"*.	c #A49595",
"=.	c #A99A9A",
"-.	c #B2A3A3",
";.	c #BAAAAA",
">.	c #BDACAC",
",.	c #BFAEAE",
"'.	c #C0AFAF",
").	c #BFAFAF",
"!.	c #BEADAD",
"~.	c #BBABAB",
"{.	c #B8A8A8",
"].	c #B4A4A4",
"^.	c #AFA0A0",
"/.	c #AA9C9C",
"(.	c #CCC5C5",
"_.	c #7D7575",
":.	c #6E6464",
"<.	c #7F7373",
"[.	c #887C7C",
"}.	c #8D8181",
"|.	c #A99B9B",
"1.	c #BAA9A9",
"2.	c #BEAEAE",
"3.	c #C2B1B1",
"4.	c #C6B4B4",
"5.	c #C8B6B6",
"6.	c #C9B8B8",
"7.	c #C8B7B7",
"8.	c #C6B5B5",
"9.	c #C4B2B2",
"0.	c #B1A1A1",
"a.	c #A19B9B",
"b.	c #6B6262",
"c.	c #6F6666",
"d.	c #817575",
"e.	c #867A7A",
"f.	c #908484",
"g.	c #9C8F8F",
"h.	c #C1B0B0",
"i.	c #CBB9B9",
"j.	c #CEBDBD",
"k.	c #D1BFBF",
"l.	c #D3C0C0",
"m.	c #D2BFBF",
"n.	c #CFBDBD",
"o.	c #CCBABA",
"p.	c #C3B2B2",
"q.	c #BDADAD",
"r.	c #A79A9A",
"s.	c #6A6060",
"t.	c #6D6363",
"u.	c #716767",
"v.	c #756B6B",
"w.	c #796F6F",
"x.	c #837777",
"y.	c #9A8C8C",
"z.	c #CEBCBC",
"A.	c #D3C1C1",
"B.	c #D7C5C5",
"C.	c #DAC7C7",
"D.	c #DCC9C9",
"E.	c #DBC8C8",
"F.	c #D8C6C6",
"G.	c #D5C2C2",
"H.	c #D0BEBE",
"I.	c #CAB8B8",
"J.	c #C4B3B3",
"K.	c #C4BCBC",
"L.	c #8B8484",
"M.	c #6A6161",
"N.	c #766C6C",
"O.	c #857979",
"P.	c #B9A9A9",
"Q.	c #D5C3C3",
"R.	c #E0CCCC",
"S.	c #E3CFCF",
"T.	c #E5D1D1",
"U.	c #E4D0D0",
"V.	c #E1CDCD",
"W.	c #DDCACA",
"X.	c #CAB9B9",
"Y.	c #A09393",
"Z.	c #675E5E",
"`.	c #6B6161",
" +	c #6F6565",
".+	c #8C8080",
"++	c #928585",
"@+	c #E8D4D4",
"#+	c #ECD7D7",
"$+	c #EED9D9",
"%+	c #ECD8D8",
"&+	c #E9D5D5",
"*+	c #DECBCB",
"=+	c #D8C5C5",
"-+	c #B0A1A1",
";+	c #9D9898",
">+	c #685F5F",
",+	c #746969",
"'+	c #7D7272",
")+	c #D2C0C0",
"!+	c #E2CFCF",
"~+	c #EFDADA",
"{+	c #F3DEDE",
"]+	c #F5E0E0",
"^+	c #F4DFDF",
"/+	c #F0DBDB",
"(+	c #EBD7D7",
"_+	c #CDBBBB",
":+	c #BCABAB",
"<+	c #B3A4A4",
"[+	c #A19494",
"}+	c #6D6565",
"|+	c #6C6262",
"1+	c #D6C4C4",
"2+	c #DFCBCB",
"3+	c #E7D3D3",
"4+	c #EEDADA",
"5+	c #F9E3E3",
"6+	c #FBE5E5",
"7+	c #FCE6E6",
"8+	c #FAE4E4",
"9+	c #F6E1E1",
"0+	c #EAD5D5",
"a+	c #E2CECE",
"b+	c #D9C6C6",
"c+	c #C7B6B6",
"d+	c #655C5C",
"e+	c #6C6363",
"f+	c #756A6A",
"g+	c #D0BDBD",
"h+	c #EAD6D6",
"i+	c #F2DDDD",
"j+	c #F8E3E3",
"k+	c #FDE7E7",
"l+	c #FFE9E9",
"m+	c #FFEAEA",
"n+	c #FEE8E8",
"o+	c #EDD8D8",
"p+	c #BFB6B6",
"q+	c #B1ADAD",
"r+	c #695F5F",
"s+	c #706767",
"t+	c #E3D0D0",
"u+	c #FAE5E5",
"v+	c #FFEBEB",
"w+	c #FFECEC",
"x+	c #E6D2D2",
"y+	c #D4C1C1",
"z+	c #A79B9B",
"A+	c #948E8E",
"B+	c #A59696",
"C+	c #7F7878",
"D+	c #F8E2E2",
"E+	c #DCC8C8",
"F+	c #726B6B",
"G+	c #645C5C",
"H+	c #D6C3C3",
"I+	c #F9E4E4",
"J+	c #E1CECE",
"K+	c #C7B5B5",
"L+	c #B5A6A6",
"M+	c #6A6262",
"N+	c #645B5B",
"O+	c #877C7C",
"P+	c #B9A8A8",
"Q+	c #E9D4D4",
"R+	c #F5DFDF",
"S+	c #DDC9C9",
"T+	c #D4C2C2",
"U+	c #968888",
"V+	c #6D6666",
"W+	c #635B5B",
"X+	c #C5B4B4",
"Y+	c #EBD6D6",
"Z+	c #DECACA",
"`+	c #D7C4C4",
" @	c #787171",
".@	c #635A5A",
"+@	c #665D5D",
"@@	c #847979",
"#@	c #B1A2A2",
"$@	c #DFCCCC",
"%@	c #E0CDCD",
"&@	c #8A8484",
"*@	c #625959",
"=@	c #696060",
"-@	c #BBAAAA",
";@	c #A29393",
">@	c #A39F9F",
",@	c #615959",
"'@	c #A89999",
")@	c #BCACAC",
"!@	c #988A8A",
"~@	c #948888",
"{@	c #605858",
"]@	c #716868",
"^@	c #ABA2A2",
"/@	c #615858",
"(@	c #847E7E",
"_@	c #7D7373",
":@	c #827676",
"<@	c #5F5757",
"[@	c #625A5A",
"}@	c #776C6C",
"|@	c #A39A9A",
"1@	c #6D6464",
"2@	c #7B7171",
"3@	c #9F9292",
"4@	c #9B8D8D",
"5@	c #938787",
"6@	c #918585",
"7@	c #9B9292",
"8@	c #797272",
"9@	c #B5AFAF",
"0@	c #B6B2B2",
"a@	c #978E8E",
"b@	c #9E9999",
"c@	c #8A8181",
"d@	c #9A9595",
"e@	c #887F7F",
"f@	c #ABA7A7",
"g@	c #928A8A",
"h@	c #AFA9A9",
"i@	c #9F9A9A",
"j@	c #8D8585",
"k@	c #A09B9B",
"l@	c #696161",
"m@	c #918A8A",
"n@	c #9C9696",
"o@	c #787070",
"p@	c #665E5E",
"q@	c #726A6A",
"r@	c #938C8C",
"s@	c #BBB7B7",
"                                                                                                  ",
"                                                                                                  ",
"                                                                                                  ",
"                                      . + @ # $ % & * =                                           ",
"                                - ; > , ' ) ! ~ { ] ^ / / ( _                                     ",
"                            : < [ } | 1 ! 2 ] / 3 4 5 6 7 7 6 8 9                                 ",
"                        0 a b [ c d e f g / h 6 i j k l m m m l n o p                             ",
"                      q r s [ } d e ~ t 3 6 o u v w x y z A z B C D l u E                         ",
"                    F G H I } d e 2 ^ h J k D x K L M N O O N P Q R B S l T                       ",
"                  U U a V > | e ~ ^ 4 i l C A Q O W X Y Z Z `  ...+.M R x v @.                    ",
"                #.$.r s [ %.1 f &.h i m *.=.N -.` ;.>.,.'.'.).!.~.{.].^./.B v (.                  ",
"              _.:.U a V <.d [.}.3 7 l *.|.^. .1.2.3.4.5.6.6.7.8.9.'.~.Y 0.Q B v                   ",
"            a.b.c.G s [ d.e.~ f.5 g.S =.^. .~.h.8.i.j.k.l.l.m.n.o.5.p.q.Z 0.Q x r.                ",
"            s.t.u.v.w.> x.[.g 3 y.v A P ].~.3.7.z.A.B.C.D.D.E.F.G.H.I.J.q.Y ^.=.S K.              ",
"          L.M.:.U N.I c O.f ^ 5 k C /.W P.h.7.n.Q.E.R.S.T.T.U.V.W.B.k.X.p.~.].P y Y.              ",
"          Z.`. +G H [ , ) .+++7 m z N Y !.4.z.Q.D.S.@+#+$+$+%+&+U.*+=+H.7.'.{.-+=.D K.            ",
"        ;+>+b.c.,+b '+| [.}.h o D =.0.P.h.I.)+E.!+&+~+{+]+]+^+/+(+T.W.G._+J.:+<+Q *.[+            ",
"        }+>+|+$.r < > d ! &.4 n C Q ..:+J._+1+2+3+4+^+5+6+7+8+9+/+0+a+b+H.c+2.Y P y l             ",
"        d+>+e+$.f+w.> ' ! t 5 k x M  .q.8.g+b+a+h+i+j+k+l+m+n+8+^+o+T.D.)+6.'.Z ^.A m p+          ",
"      q+d+r+e+s+v.V } ' f ^ 5 u B P  .2.c+k.C.t+%+^+u+l+v+w+m+7+9+~+x+W.y+X.h.{.^.K v z+          ",
"      A+d+r+e+s+v.V } ' f ^ 5 u B+P  .2.c+k.C.S.#+^+u+l+v+v+m+7+9+~+x+W.y+X.h.{.^.K v i           ",
"      C+d+>+e+$.f+w.> ' ! t 5 k x M X q.8.n.b+a+h+i+D+k+l+l+n+8+^+o+U.E+)+6.'.Z O A m 7           ",
"      F+G+>+|+$.r < > d ! &.4 n C Q ..~.J._+H+2+3+$+^+j+6+6+I+]+/+&+J+b+H.K+!.L+P B l 6           ",
"      M+N+>+b.c.,+b '+| O+}.h o D =.-+P+h.6.)+C.a+Q+$+i+^+R+{+/+h+U.S+T+o.J.~...Q C g.U+          ",
"      V+W+Z.`. +G H [ , e..+++7 m z P  .q.X+_+G.D.a+3+Y+o+o+#+@+U.Z+`+n.5.'.{.-+R D o h           ",
"       @.@+@M.:.U N.I } @@f ^ 5 g.C L #@P.'.c+z.G.C.$@!+U.U.S.%@D.`+H.I.3.~.].M B l 7 ++          ",
"      &@*@d+=@t.s+f+< > x.[.}.3 i v z P ].-@h.c+_+)+1+b+E.E.C.B.y+n.6.p.>.Y ^.R ;@j 4 t           ",
"      >@,@N+>+b. +G H [ %.1 ~ f.5 n S '@N  .-@'.X+I.z.H.m.)+k.z.i.c+3.)@` -+L x l !@++~@          ",
"        {@W+Z.M.:.]@v.V > x.[.}.++!@u C =.N ].P.!.3.X+c+7.7.c+X+p.,.;.L+-+/.B+m y.h &.^@          ",
"        /@*@d+r+e+$.,+s [ %.O.f &.h J l C R P W Y P.:+!.,.,.2.>.;.Z ..N L B+v o 4 f.~             ",
"        (@/@N+Z.M.:.]@v.w._@:@e.~ t h J l S z /.N #@<+ .Y Y Y ].W ^.M '@C m o U+/ .+[.            ",
"          <@[@d+r+|+c.G }@I } x.e ~ t h 7 n v C A =.Q P N N P M L K x D k i 4 / { [.|@            ",
"          }+/@N+Z.M.1@u.r s 2@} d e ~ &.( 5 y.k 3@S *.B y y B x S v l 4@6 h ^ .+[.@@              ",
"            <@*@d+>+`.:.u.f+b [ } x.) f }.f.5@5 J 4@g.u l l l k j i 6 h 6@] ~ O+' 7@              ",
"            8@{@.@+@r+|+ +U v.b 2@} | O.[.~ g f.++h U+8 6 6 6 5 4 3 / ] .+! e.x.,                 ",
"              *@/@N++@=@|+ +U v.s I > %.d e.[.f .+g t ^ f.f.f.t ] { ~ ! e ' , > 9@                ",
"              0@<@,@N+Z.=@|+ +u.r }@w.[ > , d O.e [.! f f f f ! [.e 1 ' , } '+a@                  ",
"                b@<@*@N+Z.=@|+:.u.G v.s V [ > %., | d @@@@O.@@' x.:@%.} '+I c@                    ",
"                  d@<@*@N++@r+b.1@c.U r a s w.I [ '+> } } } } > _@'+2@V b e@                      ",
"                    f@{@,@N++@>+M.e+:.$.U G v.N.H b w.V V V V w.< s }@v.g@                        ",
"                        V+/@.@d+Z.r+`.e+:.c.u.U G r f+v.v.v.v.v.r G r h@                          ",
"                          i@W+*@N++@Z.r+M.|+t.:. +$.$.u.u.u.u.s+$.j@                              ",
"                              k@l@.@N+d+Z.>+=@M.b.|+e+t.t.t.1@m@                                  ",
"                                    n@o@G+d++@p@Z.>+r+q@r@s@                                      ",
"                                                                                                  ",
"                                                                                                  ",
"                                                                                                  ",
"                                                                                                  ",
"                                                                                                  "};
