/* XPM */
static char * prec_xpm[] = {
"30 30 400 2",
"  	c None",
". 	c #5E6A69",
"+ 	c #6C7877",
"@ 	c #8DA19D",
"# 	c #93A6A3",
"$ 	c #96A7A4",
"% 	c #92A09E",
"& 	c #6F8480",
"* 	c #7E918D",
"= 	c #95A8A5",
"- 	c #9AACA8",
"; 	c #9AA8A6",
"> 	c #587671",
", 	c #5F7974",
"' 	c #6E847F",
") 	c #8DA29E",
"! 	c #97AAA6",
"~ 	c #9CADAA",
"{ 	c #9BA9A8",
"] 	c #587773",
"^ 	c #5B7A75",
"/ 	c #5E7C77",
"( 	c #647D78",
"_ 	c #728783",
": 	c #829591",
"< 	c #91A6A1",
"[ 	c #99ADA9",
"} 	c #9EB0AD",
"| 	c #9EADAB",
"1 	c #688380",
"2 	c #627F7B",
"3 	c #597875",
"4 	c #567571",
"5 	c #587571",
"6 	c #627B76",
"7 	c #90A4A0",
"8 	c #98ABA8",
"9 	c #9CAEAB",
"0 	c #9FADAC",
"a 	c #7B9392",
"b 	c #6E8784",
"c 	c #6C8784",
"d 	c #6A8582",
"e 	c #5C7976",
"f 	c #50706C",
"g 	c #4E6C67",
"h 	c #5F7773",
"i 	c #718481",
"j 	c #80928F",
"k 	c #8DA19E",
"l 	c #9AABA9",
"m 	c #859E9D",
"n 	c #7D9393",
"o 	c #799190",
"p 	c #6C8482",
"q 	c #6E8885",
"r 	c #607C79",
"s 	c #506F6A",
"t 	c #4A6763",
"u 	c #5C7370",
"v 	c #6E817F",
"w 	c #7E908D",
"x 	c #8C9E9B",
"y 	c #93A5A3",
"z 	c #99AAA8",
"A 	c #8FA9A8",
"B 	c #92ACAB",
"C 	c #90ABAA",
"D 	c #89A2A1",
"E 	c #839B9A",
"F 	c #7B9291",
"G 	c #6E8684",
"H 	c #6B8481",
"I 	c #698380",
"J 	c #607B78",
"K 	c #56726E",
"L 	c #516C69",
"M 	c #5F7573",
"N 	c #708380",
"O 	c #8EA09E",
"P 	c #95A7A4",
"Q 	c #9DACAB",
"R 	c #89A3A2",
"S 	c #95B0AF",
"T 	c #97B3B2",
"U 	c #8CA6A5",
"V 	c #7F9796",
"W 	c #758C8A",
"X 	c #6A8280",
"Y 	c #617A77",
"Z 	c #5E7775",
"` 	c #5A7471",
" .	c #5A7370",
"..	c #657B79",
"+.	c #768986",
"@.	c #879996",
"#.	c #94A7A4",
"$.	c #9BACAA",
"%.	c #9CABAA",
"&.	c #849E9E",
"*.	c #91ADAC",
"=.	c #93B0AF",
"-.	c #94B0AF",
";.	c #95B0B0",
">.	c #98B3B3",
",.	c #9FBCBB",
"'.	c #89A2A0",
").	c #839A98",
"!.	c #6E8583",
"~.	c #597270",
"{.	c #57716E",
"].	c #58716F",
"^.	c #718482",
"/.	c #839592",
"(.	c #93A6A4",
"_.	c #A2B5B3",
":.	c #A4B6B4",
"<.	c #A2B3B1",
"[.	c #9FAFAD",
"}.	c #87A3A3",
"|.	c #829E9E",
"1.	c #819C9C",
"2.	c #859F9E",
"3.	c #8DA8A7",
"4.	c #94B0B0",
"5.	c #94AFAE",
"6.	c #96B1B1",
"7.	c #9AB6B5",
"8.	c #9EBBBA",
"9.	c #97B2B1",
"0.	c #90A8A8",
"a.	c #90A8A7",
"b.	c #7A8F8D",
"c.	c #617776",
"d.	c #58706F",
"e.	c #5D7372",
"f.	c #697C7B",
"g.	c #798B89",
"h.	c #8A9C9A",
"i.	c #9AACAB",
"j.	c #A3B6B4",
"k.	c #A2B3B2",
"l.	c #9EAFAD",
"m.	c #A0AFAF",
"n.	c #8AA6A7",
"o.	c #8BA8A8",
"p.	c #85A2A2",
"q.	c #839E9E",
"r.	c #809B9B",
"s.	c #7D9796",
"t.	c #87A0A0",
"u.	c #92ADAC",
"v.	c #93ADAD",
"w.	c #9BB6B6",
"x.	c #99B3B3",
"y.	c #97B0B0",
"z.	c #98B0AF",
"A.	c #859A98",
"B.	c #6F8382",
"C.	c #627675",
"D.	c #677A79",
"E.	c #728483",
"F.	c #7F908F",
"G.	c #8D9E9E",
"H.	c #9EB0AF",
"I.	c #9AABAB",
"J.	c #98A7A8",
"K.	c #9FADAE",
"L.	c #799393",
"M.	c #7A9494",
"N.	c #7E9798",
"O.	c #849FA0",
"P.	c #88A4A4",
"Q.	c #809A9B",
"R.	c #85A0A0",
"S.	c #89A4A3",
"T.	c #8AA4A4",
"U.	c #8CA6A6",
"V.	c #9CB6B6",
"W.	c #A1BBBB",
"X.	c #A0B8B9",
"Y.	c #8FA3A3",
"Z.	c #869A98",
"`.	c #7F9292",
" +	c #778888",
".+	c #748585",
"++	c #778787",
"@+	c #839292",
"#+	c #8B9B9A",
"$+	c #90A1A0",
"%+	c #93A2A2",
"&+	c #95A3A4",
"*+	c #9AA9A9",
"=+	c #789091",
"-+	c #7A9293",
";+	c #80999A",
">+	c #859FA0",
",+	c #88A3A4",
"'+	c #849E9F",
")+	c #829C9C",
"!+	c #8BA3A2",
"~+	c #93ACAB",
"{+	c #9AB4B4",
"]+	c #9AB1B2",
"^+	c #9EB6B6",
"/+	c #9EB4B5",
"(+	c #8B9E9E",
"_+	c #899B9B",
":+	c #899A9A",
"<+	c #7F8F8F",
"[+	c #7D8B8C",
"}+	c #7E8C8D",
"|+	c #849292",
"1+	c #8C9C9B",
"2+	c #95A4A4",
"3+	c #99A7A8",
"4+	c #9EACAD",
"5+	c #778D8F",
"6+	c #7A9192",
"7+	c #849C9E",
"8+	c #879FA0",
"9+	c #87A0A2",
"0+	c #88A1A3",
"a+	c #809798",
"b+	c #82999A",
"c+	c #829899",
"d+	c #849B9A",
"e+	c #8FA7A7",
"f+	c #9AB3B3",
"g+	c #98ADAF",
"h+	c #9BB0B1",
"i+	c #9AAFB0",
"j+	c #8E9FA0",
"k+	c #8E9E9F",
"l+	c #8F9E9F",
"m+	c #849193",
"n+	c #839092",
"o+	c #849293",
"p+	c #839091",
"q+	c #8D9C9C",
"r+	c #9AAAAA",
"s+	c #A0B0B0",
"t+	c #A0AEAF",
"u+	c #9EADAD",
"v+	c #A1B0B0",
"w+	c #7E9496",
"x+	c #7B9092",
"y+	c #81989A",
"z+	c #839A9B",
"A+	c #839A9C",
"B+	c #869C9D",
"C+	c #7F9395",
"D+	c #7A8F8F",
"E+	c #859A9A",
"F+	c #91A7A8",
"G+	c #9CB1B3",
"H+	c #9EB3B4",
"I+	c #9FB3B5",
"J+	c #9EB2B4",
"K+	c #9CADAE",
"L+	c #97A6A7",
"M+	c #909EA0",
"N+	c #889496",
"O+	c #899597",
"P+	c #808C8C",
"Q+	c #899797",
"R+	c #97A7A7",
"S+	c #A0AFB0",
"T+	c #9DABAC",
"U+	c #7F9597",
"V+	c #7E9395",
"W+	c #879B9D",
"X+	c #849899",
"Y+	c #7F9293",
"Z+	c #7D8F90",
"`+	c #809293",
" @	c #889A9C",
".@	c #94A6A8",
"+@	c #9AADAF",
"@@	c #9CAEB0",
"#@	c #98A8AA",
"$@	c #95A2A4",
"%@	c #929EA1",
"&@	c #929DA0",
"*@	c #8F9A9D",
"=@	c #8C989A",
"-@	c #8F9D9E",
";@	c #98A6A8",
">@	c #9FADAF",
",@	c #A0AEB0",
"'@	c #76888B",
")@	c #859A9B",
"!@	c #899D9F",
"~@	c #86989A",
"{@	c #748586",
"]@	c #738384",
"^@	c #7A8A8C",
"/@	c #8C9B9E",
"(@	c #96A6A8",
"_@	c #99A8AB",
":@	c #95A0A2",
"<@	c #9AA4A7",
"[@	c #939DA0",
"}@	c #8D989A",
"|@	c #9AA8AA",
"1@	c #9BA9AB",
"2@	c #9DABAD",
"3@	c #899A9D",
"4@	c #79898B",
"5@	c #808F91",
"6@	c #8C9C9E",
"7@	c #95A4A7",
"8@	c #98A7AB",
"9@	c #97A5A8",
"0@	c #929C9F",
"a@	c #96A0A4",
"b@	c #939CA0",
"c@	c #8D9598",
"d@	c #8A9397",
"e@	c #98A4A7",
"f@	c #9CAAAC",
"g@	c #99A7A9",
"h@	c #97A5A7",
"i@	c #79888A",
"j@	c #839295",
"k@	c #8D9C9F",
"l@	c #8F9EA1",
"m@	c #8D9A9D",
"n@	c #8A9699",
"o@	c #8D989B",
"p@	c #969EA2",
"q@	c #929A9E",
"r@	c #949EA1",
"s@	c #9CA8AB",
"t@	c #A1AEB1",
"u@	c #A3B1B4",
"v@	c #A1B0B2",
"w@	c #889799",
"x@	c #889497",
"y@	c #818C90",
"z@	c #7F898C",
"A@	c #8D979A",
"B@	c #919A9E",
"C@	c #91999D",
"D@	c #98A0A4",
"E@	c #9EA8AC",
"F@	c #A0ABAE",
"G@	c #A3B0B3",
"H@	c #A6B5B8",
"I@	c #A5B3B6",
"J@	c #9DABAE",
"K@	c #9CAAAD",
"L@	c #828B8F",
"M@	c #90999E",
"N@	c #899195",
"O@	c #848B8F",
"P@	c #90989C",
"Q@	c #969FA4",
"R@	c #9AA4A8",
"S@	c #9CA7AC",
"T@	c #9AA7AB",
"U@	c #98A6A9",
"V@	c #9AA8AB",
"W@	c #9DABAF",
"X@	c #7E8589",
"Y@	c #767E82",
"Z@	c #858D92",
"`@	c #929CA1",
" #	c #9AA6AB",
".#	c #98A4A9",
"+#	c #929EA4",
"@#	c #8D9BA0",
"##	c #93A1A6",
"$#	c #9AA8AE",
"%#	c #9FAEB4",
"&#	c #9BAAB0",
"*#	c #798387",
"=#	c #8D989C",
"-#	c #9AA7AC",
";#	c #96A3A9",
">#	c #8C9AA0",
",#	c #87949B",
"'#	c #92A0A8",
")#	c #9BAAB3",
"!#	c #A0B0B8",
"~#	c #99A8B0",
"{#	c #8B979D",
"]#	c #9DACB3",
"^#	c #92A0A7",
"/#	c #88959D",
"(#	c #99A8B1",
"_#	c #9DACB6",
":#	c #9AA9B3",
"<#	c #95A3AB",
"[#	c #8D9AA2",
"}#	c #96A4AD",
"|#	c #9AA9B2",
"1#	c #A0AFB8",
"2#	c #96A4AC",
"3#	c #88959C",
"                                                          . ",
"                                                          + ",
"                                                    @ # $ % ",
"                                                & * @ = - ; ",
"                                            > , ' * ) ! ~ { ",
"                                        ] ^ / ( _ : < [ } | ",
"                                    1 2 3 4 5 6 _ : 7 8 9 0 ",
"                                a b c d e f g h i j k = l 0 ",
"                          m n a o p b q r s t u v w x y z 0 ",
"                      A B C D E F G H I J K L M N j O P z Q ",
"                    R C S T T U V W X Y Z `  ...+.@.#.l $.%.",
"              &.*.=.-.S ;.>.,.;.'.).!.~.{.].M ^./.(._.:.<.[.",
"          }.|.1.2.3.4.5.6.7.8.9.0.a.b.c.d.e.f.g.h.i.j.k.l.m.",
"      n.o.p.q.r.s.t.u.v.9.w.w.x.y.z.A.B.C.D.E.F.G.i.H.I.J.K.",
"L.M.N.O.P.Q.1.R.S.T.U.B 9.w.V.W.X.Y.Z.`. +.+++@+#+$+%+%+&+*+",
"=+-+;+>+,+'+)+)+t.t.t.!+~+{+]+^+/+(+_+:+<+[+}+|+1+2+J.J.3+4+",
"5+6+7+8+9+0+7+a+b+c+c+d+e+f+g+h+i+j+k+l+m+n+o+p+q+r+s+t+u+v+",
"      w+x+y+z+A+B+C+D+E+F+G+H+I+J+K+L+M+N+O+O+P+Q+R+S+t+T+u+",
"          U+V+C+W+X+Y+Z+`+ @.@+@@@#@$@%@&@*@=@O+-@;@4+>@>@,@",
"              '@)@!@~@{@]@^@/@(@_@%@&@:@<@[@}@$@;@|@1@2@,@,@",
"                    3@4@5@6@7@8@9@*@0@a@b@c@d@e@f@f@|@g@;@h@",
"                      i@j@k@l@m@n@o@0@p@q@q@r@s@t@u@v@2@|@;@",
"                          w@x@y@z@A@B@C@q@D@E@F@G@H@I@v@J@K@",
"                                L@M@N@O@P@Q@R@S@T@U@9@V@W@W@",
"                                    X@Y@Z@`@ #.#+#@###$#%#&#",
"                                        *#=#-#;#>#,#'#)#!#~#",
"                                            {#]#^#/#'#(#_#:#",
"                                                <#[#'#}#|#1#",
"                                                    '#'#2#!#",
"                                                          3#"};
