/* XPM */
static char * suiv_xpm[] = {
"30 30 400 2",
"  	c None",
". 	c #88959C",
"+ 	c #A0B0B8",
"@ 	c #96A4AC",
"# 	c #92A0A8",
"$ 	c #A0AFB8",
"% 	c #9AA9B2",
"& 	c #96A4AD",
"* 	c #8D9AA2",
"= 	c #95A3AB",
"- 	c #9AA9B3",
"; 	c #9DACB6",
"> 	c #99A8B1",
", 	c #88959D",
"' 	c #92A0A7",
") 	c #9DACB3",
"! 	c #8B979D",
"~ 	c #99A8B0",
"{ 	c #9BAAB3",
"] 	c #87949B",
"^ 	c #8C9AA0",
"/ 	c #96A3A9",
"( 	c #9AA7AC",
"_ 	c #8D989C",
": 	c #798387",
"< 	c #9BAAB0",
"[ 	c #9FAEB4",
"} 	c #9AA8AE",
"| 	c #93A1A6",
"1 	c #8D9BA0",
"2 	c #929EA4",
"3 	c #98A4A9",
"4 	c #9AA6AB",
"5 	c #929CA1",
"6 	c #858D92",
"7 	c #767E82",
"8 	c #7E8589",
"9 	c #9DABAF",
"0 	c #9AA8AB",
"a 	c #97A5A8",
"b 	c #98A6A9",
"c 	c #9AA7AB",
"d 	c #9CA7AC",
"e 	c #9AA4A8",
"f 	c #969FA4",
"g 	c #90989C",
"h 	c #848B8F",
"i 	c #899195",
"j 	c #90999E",
"k 	c #828B8F",
"l 	c #9CAAAD",
"m 	c #9DABAE",
"n 	c #A1B0B2",
"o 	c #A5B3B6",
"p 	c #A6B5B8",
"q 	c #A3B0B3",
"r 	c #A0ABAE",
"s 	c #9EA8AC",
"t 	c #98A0A4",
"u 	c #929A9E",
"v 	c #91999D",
"w 	c #919A9E",
"x 	c #8D979A",
"y 	c #7F898C",
"z 	c #818C90",
"A 	c #889497",
"B 	c #889799",
"C 	c #98A6A8",
"D 	c #9AA8AA",
"E 	c #9DABAD",
"F 	c #A3B1B4",
"G 	c #A1AEB1",
"H 	c #9CA8AB",
"I 	c #949EA1",
"J 	c #969EA2",
"K 	c #929C9F",
"L 	c #8D989B",
"M 	c #8A9699",
"N 	c #8D9A9D",
"O 	c #8F9EA1",
"P 	c #8D9C9F",
"Q 	c #839295",
"R 	c #79888A",
"S 	c #97A5A7",
"T 	c #99A7A9",
"U 	c #9CAAAC",
"V 	c #98A4A7",
"W 	c #8A9397",
"X 	c #8D9598",
"Y 	c #939CA0",
"Z 	c #96A0A4",
"` 	c #8F9A9D",
" .	c #98A7AB",
"..	c #95A4A7",
"+.	c #8C9C9E",
"@.	c #808F91",
"#.	c #79898B",
"$.	c #899A9D",
"%.	c #A0AEB0",
"&.	c #9BA9AB",
"*.	c #95A2A4",
"=.	c #8D989A",
"-.	c #939DA0",
";.	c #9AA4A7",
">.	c #95A0A2",
",.	c #929DA0",
"'.	c #929EA1",
").	c #99A8AB",
"!.	c #96A6A8",
"~.	c #8C9B9E",
"{.	c #7A8A8C",
"].	c #738384",
"^.	c #748586",
"/.	c #86989A",
"(.	c #899D9F",
"_.	c #859A9B",
":.	c #76888B",
"<.	c #9FADAF",
"[.	c #9EACAD",
"}.	c #8F9D9E",
"|.	c #899597",
"1.	c #8C989A",
"2.	c #98A8AA",
"3.	c #9CAEB0",
"4.	c #9AADAF",
"5.	c #94A6A8",
"6.	c #889A9C",
"7.	c #809293",
"8.	c #7D8F90",
"9.	c #7F9293",
"0.	c #849899",
"a.	c #879B9D",
"b.	c #7F9395",
"c.	c #7E9395",
"d.	c #7F9597",
"e.	c #9EADAD",
"f.	c #9DABAC",
"g.	c #A0AEAF",
"h.	c #A0AFB0",
"i.	c #97A7A7",
"j.	c #899797",
"k.	c #808C8C",
"l.	c #889496",
"m.	c #909EA0",
"n.	c #97A6A7",
"o.	c #9CADAE",
"p.	c #9EB2B4",
"q.	c #9FB3B5",
"r.	c #9EB3B4",
"s.	c #9CB1B3",
"t.	c #91A7A8",
"u.	c #859A9A",
"v.	c #7A8F8F",
"w.	c #869C9D",
"x.	c #839A9C",
"y.	c #839A9B",
"z.	c #81989A",
"A.	c #7B9092",
"B.	c #7E9496",
"C.	c #A1B0B0",
"D.	c #A0B0B0",
"E.	c #9AAAAA",
"F.	c #8D9C9C",
"G.	c #839091",
"H.	c #849293",
"I.	c #839092",
"J.	c #849193",
"K.	c #8F9E9F",
"L.	c #8E9E9F",
"M.	c #8E9FA0",
"N.	c #9AAFB0",
"O.	c #9BB0B1",
"P.	c #98ADAF",
"Q.	c #9AB3B3",
"R.	c #8FA7A7",
"S.	c #849B9A",
"T.	c #829899",
"U.	c #82999A",
"V.	c #809798",
"W.	c #849C9E",
"X.	c #88A1A3",
"Y.	c #87A0A2",
"Z.	c #879FA0",
"`.	c #7A9192",
" +	c #778D8F",
".+	c #99A7A8",
"++	c #98A7A8",
"@+	c #95A4A4",
"#+	c #8C9C9B",
"$+	c #849292",
"%+	c #7E8C8D",
"&+	c #7D8B8C",
"*+	c #7F8F8F",
"=+	c #899A9A",
"-+	c #899B9B",
";+	c #8B9E9E",
">+	c #9EB4B5",
",+	c #9EB6B6",
"'+	c #9AB1B2",
")+	c #9AB4B4",
"!+	c #93ACAB",
"~+	c #8BA3A2",
"{+	c #87A0A0",
"]+	c #829C9C",
"^+	c #849E9F",
"/+	c #88A3A4",
"(+	c #859FA0",
"_+	c #80999A",
":+	c #7A9293",
"<+	c #789091",
"[+	c #9AA9A9",
"}+	c #95A3A4",
"|+	c #93A2A2",
"1+	c #90A1A0",
"2+	c #8B9B9A",
"3+	c #839292",
"4+	c #778787",
"5+	c #748585",
"6+	c #778888",
"7+	c #7F9292",
"8+	c #869A98",
"9+	c #8FA3A3",
"0+	c #A0B8B9",
"a+	c #A1BBBB",
"b+	c #9CB6B6",
"c+	c #9BB6B6",
"d+	c #97B2B1",
"e+	c #92ACAB",
"f+	c #8CA6A6",
"g+	c #8AA4A4",
"h+	c #89A4A3",
"i+	c #85A0A0",
"j+	c #819C9C",
"k+	c #809A9B",
"l+	c #88A4A4",
"m+	c #849FA0",
"n+	c #7E9798",
"o+	c #7A9494",
"p+	c #799393",
"q+	c #9FADAE",
"r+	c #9AABAB",
"s+	c #9EB0AF",
"t+	c #9AACAB",
"u+	c #8D9E9E",
"v+	c #7F908F",
"w+	c #728483",
"x+	c #677A79",
"y+	c #627675",
"z+	c #6F8382",
"A+	c #859A98",
"B+	c #98B0AF",
"C+	c #97B0B0",
"D+	c #99B3B3",
"E+	c #93ADAD",
"F+	c #92ADAC",
"G+	c #7D9796",
"H+	c #809B9B",
"I+	c #839E9E",
"J+	c #85A2A2",
"K+	c #8BA8A8",
"L+	c #8AA6A7",
"M+	c #A0AFAF",
"N+	c #9EAFAD",
"O+	c #A2B3B2",
"P+	c #A3B6B4",
"Q+	c #8A9C9A",
"R+	c #798B89",
"S+	c #697C7B",
"T+	c #5D7372",
"U+	c #58706F",
"V+	c #617776",
"W+	c #7A8F8D",
"X+	c #90A8A7",
"Y+	c #90A8A8",
"Z+	c #9EBBBA",
"`+	c #9AB6B5",
" @	c #96B1B1",
".@	c #94AFAE",
"+@	c #94B0B0",
"@@	c #8DA8A7",
"#@	c #859F9E",
"$@	c #829E9E",
"%@	c #87A3A3",
"&@	c #9FAFAD",
"*@	c #A2B3B1",
"=@	c #A4B6B4",
"-@	c #A2B5B3",
";@	c #93A6A4",
">@	c #839592",
",@	c #718482",
"'@	c #5F7573",
")@	c #58716F",
"!@	c #57716E",
"~@	c #597270",
"{@	c #6E8583",
"]@	c #839A98",
"^@	c #89A2A0",
"/@	c #95B0B0",
"(@	c #9FBCBB",
"_@	c #98B3B3",
":@	c #95B0AF",
"<@	c #94B0AF",
"[@	c #93B0AF",
"}@	c #91ADAC",
"|@	c #849E9E",
"1@	c #9CABAA",
"2@	c #9BACAA",
"3@	c #9AABA9",
"4@	c #94A7A4",
"5@	c #879996",
"6@	c #768986",
"7@	c #657B79",
"8@	c #5A7370",
"9@	c #5A7471",
"0@	c #5E7775",
"a@	c #617A77",
"b@	c #6A8280",
"c@	c #758C8A",
"d@	c #7F9796",
"e@	c #8CA6A5",
"f@	c #97B3B2",
"g@	c #90ABAA",
"h@	c #89A3A2",
"i@	c #9DACAB",
"j@	c #99AAA8",
"k@	c #95A7A4",
"l@	c #8EA09E",
"m@	c #80928F",
"n@	c #708380",
"o@	c #516C69",
"p@	c #56726E",
"q@	c #607B78",
"r@	c #698380",
"s@	c #6B8481",
"t@	c #6E8684",
"u@	c #7B9291",
"v@	c #839B9A",
"w@	c #89A2A1",
"x@	c #8FA9A8",
"y@	c #9FADAC",
"z@	c #93A5A3",
"A@	c #8C9E9B",
"B@	c #7E908D",
"C@	c #6E817F",
"D@	c #5C7370",
"E@	c #4A6763",
"F@	c #506F6A",
"G@	c #607C79",
"H@	c #6E8885",
"I@	c #6E8784",
"J@	c #6C8482",
"K@	c #799190",
"L@	c #7B9392",
"M@	c #7D9393",
"N@	c #859E9D",
"O@	c #95A8A5",
"P@	c #8DA19E",
"Q@	c #718481",
"R@	c #5F7773",
"S@	c #4E6C67",
"T@	c #50706C",
"U@	c #5C7976",
"V@	c #6A8582",
"W@	c #6C8784",
"X@	c #9CAEAB",
"Y@	c #98ABA8",
"Z@	c #90A4A0",
"`@	c #829591",
" #	c #728783",
".#	c #627B76",
"+#	c #587571",
"@#	c #567571",
"##	c #597875",
"$#	c #627F7B",
"%#	c #688380",
"&#	c #9EADAB",
"*#	c #9EB0AD",
"=#	c #99ADA9",
"-#	c #91A6A1",
";#	c #647D78",
">#	c #5E7C77",
",#	c #5B7A75",
"'#	c #587773",
")#	c #9BA9A8",
"!#	c #9CADAA",
"~#	c #97AAA6",
"{#	c #8DA29E",
"]#	c #7E918D",
"^#	c #6E847F",
"/#	c #5F7974",
"(#	c #587671",
"_#	c #9AA8A6",
":#	c #9AACA8",
"<#	c #8DA19D",
"[#	c #6F8480",
"}#	c #92A09E",
"|#	c #96A7A4",
"1#	c #93A6A3",
"2#	c #6C7877",
"3#	c #5E6A69",
".                                                           ",
"+ @ # #                                                     ",
"$ % & # * =                                                 ",
"- ; > # , ' ) !                                             ",
"~ + { # ] ^ / ( _ :                                         ",
"< [ } | 1 2 3 4 5 6 7 8                                     ",
"9 9 0 a b c d e f g h i j k                                 ",
"l m n o p q r s t u v w x y z A B                           ",
"C D E n F G H I u u J K L M N O P Q R                       ",
"S C T D U U V W X Y Z K ` a  ...+.@.#.$.                    ",
"%.%.E &.D C *.=.-.;.>.,.'.).!.~.{.].^./.(._.:.              ",
"%.<.<.[.C }.|.1.` ,.'.*.2.3.4.5.6.7.8.9.0.a.b.c.d.          ",
"e.f.g.h.i.j.k.|.|.l.m.n.o.p.q.r.s.t.u.v.b.w.x.y.z.A.B.      ",
"C.e.g.D.E.F.G.H.I.J.K.L.M.N.O.P.Q.R.S.T.T.U.V.W.X.Y.Z.W.`. +",
"[..+++++@+#+$+%+&+*+=+-+;+>+,+'+)+!+~+{+{+{+]+]+^+/+(+_+:+<+",
"[+}+|+|+1+2+3+4+5+6+7+8+9+0+a+b+c+d+e+f+g+h+i+j+k+l+m+n+o+p+",
"q+++r+s+t+u+v+w+x+y+z+A+B+C+D+c+c+d+E+F+{+G+H+I+J+K+L+      ",
"M+N+O+P+t+Q+R+S+T+U+V+W+X+Y+d+Z+`+ @.@+@@@#@j+$@%@          ",
"&@*@=@-@;@>@,@'@)@!@~@{@]@^@/@(@_@/@:@<@[@}@|@              ",
"1@2@3@4@5@6@7@8@9@0@a@b@c@d@e@f@f@:@g@h@                    ",
"i@j@k@l@m@n@'@o@p@q@r@s@t@u@v@w@g@e+x@                      ",
"y@j@z@A@B@C@D@E@F@G@H@I@J@K@L@M@N@                          ",
"y@3@O@P@m@Q@R@S@T@U@V@W@I@L@                                ",
"y@X@Y@Z@`@ #.#+#@###$#%#                                    ",
"&#*#=#-#`@ #;#>#,#'#                                        ",
")#!#~#{#]#^#/#(#                                            ",
"_#:#O@<#]#[#                                                ",
"}#|#1#<#                                                    ",
"2#                                                          ",
"3#                                                          "};
